<svg width="439" height="347" xmlns="http://www.w3.org/2000/svg" xmlns:xlink="http://www.w3.org/1999/xlink"><defs><path d="M4.146 113.207c6.195-3.939 10.033-7.177 11.513-9.714 2.22-3.807 2.691-21.514 0-34.13-2.691-12.617-7.999-40.27-7.999-43.378 0-3.109 2.9-23.203 4.908-25.294 2.008-2.09 22.89 3.758 22.89 5.028 0 1.27-7.02 26.049-7.997 28.565-.977 2.517-1.153 3.11 0 5.845 1.153 2.734 3.858 19.505 2.505 25.398-1.352 5.893-3.612 27.316-1.103 34.159 2.51 6.842 2.971 8.35 2.971 10.872 0 2.521-17.453 7.83-20.813 7.83-3.361 0-11.776 2.703-10.612 0 .776-1.803 2.021-3.53 3.737-5.181z" id="a"/><path d="M.877 105.585c1.115-1.888 3.344-3.597 3.344-7.34 0-3.741 3.066-6.68 3.066-11.895 0-5.216 1.042-27.944 0-37.403S-.089 9.183.877 5.92C1.522 3.743 9.184 1.77 23.863 0c-.784 3.03-1.176 5.865-1.176 8.506v18.891c0 5.123 2.22 26.385 0 38.818-2.22 12.433-8.199 27.37-8.199 32.03 0 4.662 1.768 9.248-1.76 11.66-3.53 2.411-7.018 2.928-8.507 1.895-1.489-1.034-4.459-4.328-3.344-6.215z" id="c"/><path d="M10.556 6.954C3.108 10.294 4.076 18.45 2.9 22.151 1.727 25.852-.8 30.807.464 30.807c1.263 0 14.156.382 17.976 3.239 3.82 2.857 32.004 4.316 36.27 3.587 4.265-.73 20.381-7.864 27.768-6.826 7.386 1.038 12.036 2.127 13.19 0 1.155-2.127-1.252-17.833-2.525-20.905C91.869 6.83 57.704-.442 50.86.642c-6.844 1.083-32.856 2.972-40.304 6.312z" id="e"/><path d="M22.415 70.51c-3.032-5.899-4.366-12.727-4.366-17.89 0-5.162-3.022-5.651-4.358-10.08C12.355 38.114 12.842 38 10.504 38S2.6 36.863.802 36.863s0-.727 0-2.955 1.636-5.3 1.636-10.076c0-4.775-.47-8.826 3.798-11.053 4.268-2.226 7.394-3.967 10.146-4.964 2.751-.997 7.69-1.224 9.476-1.224 1.787 0 14.677 2.448 18.641 1.224 3.964-1.224 9.314-4.636 10.6-5.919C56.385.613 57.427.06 57.427.978c0 .918 9.72 4.39 12.773 5.613 3.053 1.224 8.893 2.74 8.893 6.188v15.386c0 1.999.594 4.898 1.783 8.698-1.734.054-4.309.433-7.726 1.136-5.127 1.054-9.792-3.188-9.792 1.992v14.861c0 2.053 2.26 12.892 2.26 14.275 0 1.383-4.95 10.423-12.37 10.423-7.42 0-27.802-3.142-30.833-9.04z" id="g"/><path d="M.09 79.18c17.622 2.088 28.803 3.132 33.541 3.132 7.108 0 28.84 1.566 35.097 0 6.257-1.566 10.26-4.037 13.316-4.037 3.056 0 12.902-4.775 12.902-6.456 0-1.682-8.384-12.067-10.643-21.797-2.26-9.73-17.21-39.06-18.106-41.15-.597-1.394-1.354-4.3-2.27-8.72-15.935 1.254-26.034 1.88-30.296 1.88-4.262 0-9.454-.626-15.576-1.88.76 5.813.76 8.72 0 8.72-1.14 0-12.303 23.292-13.326 30.688-1.023 7.396-2.754 16.413-2.754 21.692 0 3.52-.628 9.496-1.885 17.929z" id="i"/><path d="M51.425 6.386c-.332 9.323-5.982 19.243-7.01 22.393-1.027 3.149-6.549 9.938-8.747 12.97-2.198 3.031-16.586 19.35-20.74 28.162-4.153 8.812-3.297 7.45-4.953 9.675C8.32 81.81 7.47 81.313 5.638 82.74c-1.831 1.426-4.445-.539-4.445-3.896 0-3.357-1.095-2.462-.548-5.058.548-2.597 10.775-16.023 14.284-21.6 3.509-5.578 9.096-18.64 11.033-21.215 1.937-2.576 9.005-16.774 11.04-22.198C39.036 3.349 42.432.19 45.432.19c3.001 0 6.17 1.224 5.993 6.195z" id="k"/><rect id="m" width="21.327" height="21.279" rx="4"/><ellipse id="o" cx="10.664" cy="10.64" rx="5.848" ry="5.835"/><path d="M29.945.575c3.034 0 4.758 1.8 5.971 2.4 1.213.6-5.507 12.279-11.09 13.084-3.139.586-.845 2.622-.845 3.37 0 .75-2.763 1.9-4.255 1.9s-.172 1.882-1.063 2.442c-.89.559-12.922.559-14.32 0-1.399-.56-3.69-9.019-3.69-9.966 0-.948-.378-3.085.83-3.775 1.21-.69 7.45 0 10.253 0 2.515 0 3.559-.45 5.252-.886 0 0 3.988-1.536 4.62-.772.632.763 5.123 0 8.337-7.797z" id="p"/><path d="M64.29 4.831a139.772 139.772 0 0 0-1.615 8.13c-.627 3.79-.327 10.605-1.997 11.88-1.67 1.274-33.926 17.273-39.874 19.281-5.948 2.008-17.603 8.134-18.046 10.01-.444 1.875 3.875-2.31 3.322-.801-.553 1.51-5.162 4.93-4.623 6.415.54 1.487-2.363 3.04-.63 4.319 1.733 1.278 10.425 2.156 12.778 1.278 2.354-.879 2.91-5.624 6.616-9.004 3.707-3.381 2.982-3.559 6.35-5.233 3.369-1.674 36.474-11.771 40.158-14.099 3.684-2.327 4.534-1.486 5.81-4.186 1.277-2.7 6.865-19.86 6.865-28.447 0-5.726-5.038-5.573-15.113.457z" id="r"/><path d="M.342 1.878v6.83c0 2.134-.769 5.89 0 5.89.768 0 16.313-.768 18.021-.768 1.708 0 4.954.341 4.954-1.11S21.748 1.144 21.18.512c-.567-.631-10.857.768-13.504.768-2.648 0-7.335 0-7.335.598z" id="t"/><path d="M3.64 1.23C4.644-.558 6.114.78 8.124.78c2.01 0 6.92-.053 8.26 1.302 1.06 1.912 1.21 4.064 1.864 5.59.437 1.017.708 1.575.813 1.675-.663 5.33-1.21 7.994-1.641 7.994-1.035.555-9.158-1.013-11.74-1.867-1.722-.57-3.447-.804-5.174-.704C.825 10.437 1.87 5.924 3.64 1.23z" id="v"/><path d="M.396 9.946c6.765 1.627 11.029 2.44 12.793 2.44 2.647 0 11.54-2.985 13.059-4.653 1.518-1.668 4.31-3.46 4.81-3.46.498 0-3.564-2.467-4.369-3.559-.805-1.092-2.036.562-4.312 2.212C15.747 7.733 4.714 8.3 3.21 8.3c-1.003 0-1.941.549-2.814 1.647z" id="x"/><path d="M4.414 8.17c-2.516 2.131-5.98 10.181-2.298 15.104 3.682 4.923.704 10.555 1.83 11.552 1.126.997 2.112-.25 3.619.357 1.506.607.562 2.838 1.592 2.838s2.65-.567 1.84.373c-.81.94-.213 1.796.502 1.796s1.236 3.426 2.402 3.426h6.974c2.252 0 14.156-.506 20.165-5.595-7.355-3.801-6.01-8.842-6.01-10.007 0-1.165.69-4.24 0-6.335-.688-2.096-1.998-18.663-12.177-20.623-10.18-1.96-9.64-.875-18.439 7.114z" id="z"/></defs><g fill="none" fill-rule="evenodd"><g transform="translate(136 204)"><mask id="b" fill="#fff"><use xlink:href="#a"/></mask><use fill="#F4B1A1" xlink:href="#a"/><path d="M10.523 10.624c10.833 2.848 16.25 5.39 16.25 7.625 0 3.354-4.874 15.472-3.934 20.97.94 5.5 6.91 23.044 3.934 34.787-2.975 11.744 0 17.697 0 22.53 0 4.833 4.509 10.911 4.509 11.807 0 .896.943-4.577.943-6.231s-.943-42.134-.943-42.134V45.409c0-3.22.314-9.257.943-18.113 3.124-8.415 3.75-13.508 1.879-15.279C31.296 9.361 12.526 4.3 12.526 5.723c0 .95-.668 2.584-2.003 4.901z" fill="#EB9C89" mask="url(#b)"/></g><g transform="translate(195 209)"><mask id="d" fill="#fff"><use xlink:href="#c"/></mask><use fill="#F4B1A1" xlink:href="#c"/><path d="M7.965 106.01c2.642 2.424 4.115 2.424 4.418 0 .455-3.638.36-2.962.36-4.85 0-1.887-.356-5.773.684-10.34s9.192-31.107 7.216-42.856c-1.975-11.75.051-40.066-7.216-40.066H-.076C13.722 3.306 20.934 1.01 21.56 1.01h6.56c3.206 16.231 4.808 24.641 4.808 25.23 0 .884 3.122 35.696 3.122 36.808 0 1.112-12.613 21.765-13.552 23.659-.626 1.263-2.254 7.016-4.886 17.26l-4.185 9.816-5.462-7.774z" fill="#EB9C89" mask="url(#d)"/></g><path d="M127.34 322.997c.651.5 9.93 1.439 13.93.772 4-.668 20.689-2.836 23.297-2.836 2.609 0 6.433-1.669 6.433-3.003 0-1.335-1.524-8.407-2.563-7.905 0 0-3.174 2.234-5.608 4.068-2.435 1.834-13.257 4.817-15.626 4.63-2.37-.188-2.413-1.19-2.282-1.878.13-.688.695-2.335-.457-2.752-1.151-.417-2.847-.688-3.39-.188-.543.5-2.977 2.815-4.042 3.274-1.065.459-8.063 2.899-9.04 3.587-.979.688-1.305 1.73-.653 2.231zM198.261 324c-3.703 0-5.261-.68-5.261-2.29 0-1.61 1.973-4.434 1.973-5.55 0-1.117 1.025-3.102 2.05-3.102 1.027 0 6.269-.28 6.967.941.7 1.222 2.873 4.554 3.804 3.358.932-1.197 1.92-4.81 1.92-6.314 0-1.505 1.028-1.27 1.028 0s.58 4.423 0 6.103c-.582 1.68-1.095 3.436-2.022 4.564-.926 1.128-6.756 2.29-10.459 2.29z" fill="#13287E"/><g transform="translate(142 183)"><mask id="f" fill="#fff"><use xlink:href="#e"/></mask><use fill="#247FFB" xlink:href="#e"/><path d="M1.797 31.243c-3.881-1.066 2.744-4.228 2.744-7.763s4.3-5.506 11.04-4.645c6.74.86 15.645 7.735 25.492 7.735 9.847 0 7.13.81 14.704-2.133 4.569-1.775 11.858-3.697 21.658-2.893 6.189.508 7.122-3.634 10.502-2.709C92.11 19.977 94.516 23.48 95 29.781c.485 6.3 0 9.47 0 4.19 0-1.236 5.129-1.208 5.403-3.263.899-6.727-2.336-18.162-4.273-20.882C93.6 6.275 54.32 5.388 49.518 5.388H15.581c-2.091 0-7.355 2.852-15.791 8.558-1.915 9.299-2.761 14.886-2.538 16.762.255 2.147 6.198.989 4.545.535z" fill="#0A56DF" mask="url(#f)"/></g><g transform="translate(144 54)"><mask id="h" fill="#fff"><use xlink:href="#g"/></mask><use fill="#247FFB" xlink:href="#g"/><path d="M67.592 22.99c.308.728-6.675 12.074-6.675 15.162 0 3.087 2.74 28.663 0 30.515-2.741 1.851-4.34 2.569-9.013 2.21s-14.18-2.21-18.673-2.21c-4.493 0-12.012 6.013-14.19 0-2.177-6.013-2.944-7.53-2.944-13.577 0-6.046.204-2.22-1.794-8.216C12.305 40.878 2.43 39.476.377 38.152c-1.37-.883-2.265-1.439-2.688-1.668 1.238-.64 2.134-.985 2.688-1.033 1.87-.16 3.26.806 4.055.806 1.721 0 6.35.227 6.35-.806 0-1.032.952-4.103.952-6.529 0-2.425 1.056 5.894 1.056 7.562 0 1.668 3.307 8.415 7.516 11.682 4.21 3.267.953 9.55 3.21 15.025 2.255 5.476 18.845 1.207 25.266-4.087 6.42-5.294 6.628-10.311 8.988-12.23 2.36-1.92 1.111-9.603 2.003-11.423.892-1.82 7.555-13.084 7.82-12.46zM33.897 7.211c2.27 1.96 5.097 2.681 8.48 2.162 5.073-.778 9.844-1.49 11.61-2.985 1.765-1.494 1.648-3.086 3.593-3.086s8.766 2.471 13.954 3.91c3.458.958 1.363-1.971-6.285-8.79L53.986-.118 31.293 6.388l2.604.823z" fill="#0A56DF" mask="url(#h)"/></g><g transform="translate(146 120)"><mask id="j" fill="#fff"><use xlink:href="#i"/></mask><use fill="#FFF" xlink:href="#i"/><path d="M-.46 79.513c1.371-1.568 5.054-10.634 5.054-20.226 0-9.592 7.036-17.1 10.39-18.531 3.354-1.43-3.728-.975 3.592-8.454 7.32-7.48 19.667-7.48 36.839-9.649 17.172-2.17 17.574 20.67 19.504 29.795 1.929 9.124 8.316 11.234 3.514 16.621-4.803 5.387-4.912 7.053-10.755 10.444-5.844 3.39-41.005 1.64-41.782 2.297-.518.438 12.439 1.868 38.87 4.289l36.963-11.654c-5.897-3.725-9.847-9.526-11.85-17.404-3.005-11.816-5.99-30.825-11.446-37.279C72.976 13.31 67.678 2.447 67.678 1.325c0-.749-3.352-1.64-10.056-2.674C40.86 10.063 30.284 16.434 25.896 17.766c-6.583 1.996-13.546 5.77-13.546 4.887s6.352-11.277 7.657-11.277c1.304 0-.412-6.495 14.784-8.322 10.13-1.218 17.005-3.765 20.624-7.641L16.768-3.191 8.943 6.49l-2.515 10.22C-2.218 49.594-6.541 67.046-6.541 69.07c0 3.035 4.711 12.012 6.082 10.444z" fill="#EFEFEF" mask="url(#j)"/></g><g transform="translate(103 95)"><mask id="l" fill="#fff"><use xlink:href="#k"/></mask><use fill="#F4B1A1" xlink:href="#k"/><path d="M48.082 10.902c-2.12 7.972-4.216 14.029-6.288 18.17-2.072 4.143-9.06 13.881-20.961 29.216-6.283 3.605-9.797 6.046-10.544 7.322-1.12 1.914-4.502 7.772-4.502 8.966 0 .796-1.257 3.14-3.77 7.028l3.77-3.22 1.847-6.04 14.428-9.248 28.86-33.322 4.08-20.182-9.114-3.27 2.194 4.58z" fill="#EB9C89" mask="url(#l)"/></g><g transform="translate(0 149)"><path d="M217.414 179.294c0 .429-.086 2.316.172 3.69.258 1.372.86 4.719 2.322 6.177 1.463 1.459 8.772 7.465 10.836 8.066 2.064.6 39.903-.343 41.709-1.802 1.806-1.459-3.182-10.125-2.408-11.67.774-1.544 5.246-7.378 8.342-6.263 3.096 1.115 11.781 3.088 11.781 1.115s-16.986-15.24-20.123-3.729c-3.137 11.511-52.63 3.986-52.63 4.416z" fill="#0D1843"/><path d="M217.571 179.91c-1.144-1.672 3.698-9.352 7.654-13.042 3.956-3.69 14.018-11.24 20.123-11.24 6.106 0 24.767-1.115 28.465 0 3.697 1.116 16.684 11.756 16.253 20.593 0 5.234-1.72-7.379-11.093-6.178-9.374 1.201-11.352 10.468-12.04 12.87-.687 2.403-26.056 2.146-27.776 2.746-1.721.6-16.942-1.372-21.586-5.748z" fill="#247FFB"/><path d="M290.416 177.956c-.665-6.618-2.964-10.734-6.897-12.348-5.9-2.42-18.78-2.905-32.23 5.266-6.643 4.036-9.033 9.903-14.71 13.021-1.323.727-4.505.997-9.547.811 4.303 1.15 7.485 1.724 9.546 1.724 19.146 0 28.53.861 30.112-.488 2.763-2.353.986-8.413 6.487-9.12 3.666-.472 9.413-.094 17.24 1.134zM227.561 168.052c-1.009 2.337-.628 3.802 1.144 4.393 2.657.887 8.802-2.18 10.153-4.393 1.35-2.212.406-4.682-1.114-4.682-1.012 0-4.407 1.56-10.183 4.682z" fill="#13287E"/><path d="M107.416 35.115L35.6 162.513c-4.011-1.446-6.017-2.58-6.017-3.4 0-.822 24.208-43.334 72.624-127.537l5.21 3.539z" fill="#D9D9D9"/><path fill="#B7B6B6" d="M108.049 34.538L35.775 162.746 104.64 36.242l-2.153-3.98z"/><path d="M228.106 169.837c2.197.845 4.45.365 6.759-1.439 2.308-1.803 3.112-3.215 2.41-4.235-10.318-14.373-22.287-21.191-35.906-20.454-20.43 1.105-31.699 3.833-31.45-2.318.248-6.151-1.814-10.533 13.133-47.165 3.256-3.088 10.855-24.747 3.675-50.004C184.853 38.57 176.909 1.597 145.751 0c-4.247 0-23.927 3.58-33.053 15.199-6.085 7.745-9.71 13.367-10.878 16.868l5.44 2.92c9.202-18.14 21.62-27.21 37.257-27.21 8.967 1.13 25.03 0 35.219 37.813 1.471 8.102 6.991 23.053-3.207 45.514-1.99 3.122-18.143 37.986-14.312 52.605 2.36 4.048 2.36 12.019 29.453 7.132 19.564-3.01 31.71 3.323 36.436 18.996z" fill="#000"/><g transform="translate(349.492 86.49)"><mask id="n" fill="#fff"><use xlink:href="#m"/></mask><use fill="#D9E8EC" xlink:href="#m"/><path d="M4.06-.066c9.05.614 14.102 1.122 15.154 1.526 1.578.606 1.368 13.493 1.923 18.807.555 5.314 1.119.356 1.119 0 0-.237.26-7.015.78-20.333C14.093-1.89 9.53-2.723 9.352-2.564c-.18.158-1.943.991-5.292 2.498z" fill="#C8DADF" mask="url(#n)"/></g><g transform="translate(349.492 86.49)"><use fill="#FFF" xlink:href="#o"/><use fill="#13287E" xlink:href="#o"/></g><path d="M289.638 176.616c10.337 11.987 22.637 17.98 36.902 17.98 21.397 0 9.074-14.275 50.7-4.727 41.624 9.549 80.64-7.388 48.586-26.5-32.054-19.11-67.294-17.237-65.797-65.702" stroke="#13287E" stroke-width="2" stroke-linecap="round" stroke-linejoin="round"/><ellipse fill="#000" cx="280.35" cy="183.619" rx="12.04" ry="13.385"/><g transform="translate(0 158.565)"><mask id="q" fill="#fff"><use xlink:href="#p"/></mask><use fill="#000" xlink:href="#p"/><path d="M.701 12.237c1.904 5.914 3.375 8.871 4.411 8.871 1.555 0 11.622.934 11.622 0 0-.933 2.667-1.893 4.302-1.893 1.636 0 .058-2.424 1.148-3.854 1.09-1.43 2.102.567 5.138-2.523s5.628-7.12 4.758-8.45c-.58-.886-1.212-2.123-1.896-3.71l1.896-2.334 5.076 1.032 1.035 5.564-11.42 22.375H14.046c-6.85.086-10.635-.165-11.354-.752-.719-.588-2.29-5.825-4.712-15.71L.7 12.237z" fill="#212121" mask="url(#q)"/></g><path d="M116.01 21.537c-.766 1.006-1.265 1.436-1.495 1.291-1.543-.974-1.314-2.922-2.093-2.922-1.43 0-2.346 1.617-2.346 4.105 0 2.487.882 6.634 1.502 7.115.62.48 2.63.107 2.937-1.342.44-2.08 1.72-2.654 2.3-4.726.242-.866-.026-2.04-.804-3.521zM110.735 17.816c0 .458-2.984 3.437-3.255 4.91-.27 1.472-.886 6.043-2.542 7.163-1.657 1.121-1.118-.686-1.854.48-.735 1.168-1.75 3.99-2.503 3.99-.753 0 1.853-4.967 1.853-6.732 0-1.766.934-6.39 1.756-7.936.822-1.545 4.43-6.065 6.093-7.194 1.662-1.129.452 4.86.452 5.319z" fill="#F4B1A1"/></g><g transform="translate(141 95)"><mask id="s" fill="#fff"><use xlink:href="#r"/></mask><use fill="#F4B1A1" xlink:href="#r"/><path d="M69.513 9.096l6.132 1.084c-2.555 14.734-4.599 22.44-6.132 23.116-2.3 1.016-45.93 17.21-45.188 19.366.493 1.436 6.842 1.86 19.045 1.27l36.077-23.26 2.727-24.37-10.176-1.4-2.485 4.194z" fill="#EB9C89" mask="url(#s)"/></g><g transform="translate(204 90)"><mask id="u" fill="#fff"><use xlink:href="#t"/></mask><use fill="#FFF" xlink:href="#t"/><path d="M-.75 14.552c1.424-.714 2.136-1.806 2.136-3.276 0-2.205.134-7.684 1.366-7.684 1.233 0 8.095-.411 9.852-1.315 1.172-.603 3.35-1.31 6.533-2.124C7.207-1.263.91-1.263.246.153c-.664 1.416-.995 6.216-.995 14.4z" fill="#EFEFEF" mask="url(#u)"/></g><g transform="translate(140 90)"><mask id="w" fill="#fff"><use xlink:href="#v"/></mask><use fill="#FFF" xlink:href="#v"/><path d="M19.907 14.468v-7.67c0-2.247-2.485-8.22-4.562-8.22C13.27-1.423 6.33.05 5.227.05c-1.103 0 .268 2.162 1.998 2.162s4.33.311 6.268 1.806c1.94 1.495 4.742 8.808 4.742 10.45 0 1.093.557 1.093 1.672 0z" fill="#EFEFEF" mask="url(#w)"/></g><g transform="translate(170 50)"><mask id="y" fill="#fff"><use xlink:href="#x"/></mask><use fill="#FFF" xlink:href="#x"/><path d="M1.02 10.23c3.915.787 8.06 1.18 12.438 1.18 6.565 0 14.925-5.968 14.925-7.3 0-1.333-1.691-3.298-2.62-3.623-.927-.324 7.402-2.722 9.074-2.722 1.115 0 3.434 2.65 6.958 7.951L18.677 16.672 1.02 10.23z" fill="#EFEFEF" mask="url(#y)"/></g><path d="M159.36 20.115c.066 1.263-9.767 1.485-8.3 10.315 1.467 8.83-3.123 8.828 1.532 10.238 4.654 1.41 5.528-.29 7.36-.386 1.832-.096 10.172-7.68 10.104-8.978-.068-1.299-10.763-12.453-10.696-11.19z" fill="#031662"/><g transform="translate(152 14)"><mask id="A" fill="#fff"><use xlink:href="#z"/></mask><use fill="#F4B1A1" xlink:href="#z"/><ellipse fill="#13287E" mask="url(#A)" cx="7.858" cy="25.611" rx="1.025" ry="1.024"/><path d="M12.007 43.153c-1.299 3.106 4.945 2.7 7.297 2.7 2.35 0 10.956 1.474 13.667 0 2.712-1.474-10.884 2.172-6.463-3.61 4.42-5.781 5.992-17.82 4.42-15.55-1.548 8.835-6.122 11.057-9.082 13.34-2.87 2.216-6.716 2.914-9.839 3.12z" fill="#EB9C89" mask="url(#A)"/><path d="M3.697 19.72c1.356.648 4.875.425 6.64 0 .393-.093-1.86-.96-2.86-.96-1.175 0-5.137.314-3.78.96z" fill="#13287E" mask="url(#A)" transform="rotate(4 6.9 19.444)"/><path d="M6.442 34.165c-.836.26-1.409.964-1.658.512-.565-.896 2.495-.77 1.658-.512z" fill="#EB9C89" mask="url(#A)" transform="rotate(4 5.651 34.476)"/><path d="M5.634 30.482c.562.356 2.498 1.443 2.498 2.451s-.904 1.2-1.235 1.074c-.19-.11.723-.11.486-1.074-.287-.901-1.898-2.451-1.749-2.451z" fill="#EB9C89" mask="url(#A)"/><ellipse fill="#EB9C89" mask="url(#A)" transform="rotate(-33 15.373 26.294)" cx="15.373" cy="26.294" rx="2.391" ry="1.707"/><path d="M8.56 37.213c.942-.57 3.148.096 4.963-2.739 1.815-2.834-1.22 6.446-3.157 5.219-1.937-1.227-.302-.083-1.042-.56-.74-.476-1.868-.117-.765-1.92zM26.647 15.718c1.636-.466 2.952.027 3.947 1.479 1.494 2.177 1.105 1.613 1.105 2.988 0 1.376-1.105 3.127-1.105 5.028 0 1.267.369 1.905 1.105 1.913l1.691-2.512 2.634-7.417-6.386-5.587-2.99 4.108z" fill="#EB9C89" mask="url(#A)"/></g><path d="M151.372 27.656c.741.99 2.868-2.566 5.266-2.566s7.624 1.431 7.624 4.374c0 2.943 2.26 3.393 5.967 3.393s2.805 2.981 6.012 3.754c3.206.773.066-4.027 1.991-5.616 1.926-1.59 2.53-1.667 4.204-.756s2.416 3.093 3.004 4.885c.587 1.792-5.636 8.33 3.43 12.476 9.065 4.145-.485-2.029 0-4.146.483-2.117 5.037-4.342 4.194-8.33-.843-3.988-.733-12.666-.733-13.419 0-.752-1.412-.752.733-2.444 6.612-4.959 3.14-7.536 2.041-9.724-1.099-2.187-6.177-4.71-7.692-5.208-1.414-.464-2.555-3.855-3.938-2.502-.624.612-2.609-1.827-7.818-1.827-5.21 0-9.233 3.578-9.813 6.57-.58 2.99 1.986 3.713 1.426 4.775-.56 1.061-22.948 7.481-15.898 16.311z" fill="#031662"/><path d="M177.066 12.165c-1.475-.725-10.203-1.48-10.061-1.03-.197.106 5.718.98 9.247 1.468 3.53.488 15.778 6.007 15.778 8.434 0 2.427-2.484 5.594 0 8.271 1.656 1.785 1.926.117.81-5.004 4.007 2.99 5.68 3.299 5.02.924-.662-2.375-2.335-4.197-5.02-5.467-9.533-4.58-14.79-7.112-15.774-7.596z" stroke="#247FFB" fill="#247FFB"/></g></svg>