<svg width="319" height="167" xmlns="http://www.w3.org/2000/svg"><g fill="none" fill-rule="evenodd"><path fill="#D2A57A" d="M224.739 126.7l9.07 40.3H240l-4.097-45H223z"/><path fill="#9D7753" d="M232.37 127.105L238.983 167H240l-4.097-45H223z"/><path fill="#D2A57A" d="M42.466 110.178L34.462 146H29l3.615-40H44z"/><path fill="#9D7753" d="M41.515 110.178L33.77 146H33l4.491-38.298L43 106z"/><path fill="#D2A57A" d="M279.534 119.178L287.538 155H293l-3.615-40H278z"/><path fill="#9D7753" d="M280.763 118.25L291.457 155H293l-3.615-40H278z"/><path fill="#D2A57A" d="M101.875 108.133L96.005 135H92l2.651-30H103z"/><path fill="#9D7753" d="M101.868 108.133L95.963 135H94l3.74-30H103z"/><path d="M90.249 19.043c-33.254 5.134-54.429 7.701-63.524 7.701C13.082 26.744 0 31.972 0 46.896c0 14.923.327 29.137 3.098 36.737 2.771 7.6 14.115 28.842 17.053 28.842 2.938 0 196.072 17.555 202.418 17.555 6.345 0 12.968 4.972 43.3-.881 11.89-3.36 37.651-8.614 40.314-13.85 2.663-5.234 16.24-31.666 12.005-59.367-4.236-27.702-9.536-49.348-16.701-51.704C294.322 1.87 245.092 1 105.92 1c-8.31 0-13.534 6.014-15.671 18.043z" fill="#FEFEFE"/><path d="M20.009 88.787c39.189 10.219 47.535 12.359 93.55 16.147 46.014 3.788 107.406 10.17 114.383-2.14 4.651-8.206 7.337-16.47 8.058-24.794l-17.939 19.63-189.453-14.5c-8.481-.371-11.347 1.515-8.6 5.657z" fill="#D9E8EC"/><path d="M90 25c-36.58 3.22-59.256 6.277-68.026 9.172C8.82 38.512 2.975 64.439 23.13 89c20.993 0 42.224 0 61.37-20.195C79.497 63.71 81.33 49.108 90 25zM317.992 47c-11.373 5.78-43.057.087-51.159 9.502-8.101 9.416 2.226 69.175-26.833 75.067 8.084 1.482 51.207-.69 66.4-9.125 4.472-8.552 16.064-57.485 11.592-75.444z" fill="#D9E8EC"/><path d="M70.422 61c-2.786 0-49.983 2.22-54.429 6.155-4.446 3.936-1.085 19.421 6.432 22.127C29.94 91.987 64.047 95 75.205 95c7.44 0 11.414-1.004 11.923-3.013L122 85.862V64.485C89.472 62.162 72.279 61 70.422 61z" fill="#FFF"/><path d="M124.202 65c-27.287 1.961-50.817 2.268-57.122 6.744-6.304 4.475 3.478 21.436 6.165 22.89 2.687 1.454 20.25-1.812 23.67-2.988 2.28-.784 10.113-2.466 23.499-5.046 4.332-13.158 5.595-20.358 3.788-21.6z" fill="#D9E8EC"/><path d="M127.608 65c-32.931 2.281-50.565 4.946-52.9 7.995-3.503 4.573-.875 10.613 1.28 17.34 2.156 6.726 11.57 6.13 12.965 6.13.93 0 20.901 1.512 59.911 4.535l7.946-1.256 30.275-6.987c3.887-16.223 3.887-24.335 0-24.335-3.886 0-23.712-1.14-59.477-3.422z" fill="#FFF"/><path d="M195.648 70c-24.576 0-49.686 2.417-54.084 7.263-4.398 4.845 1.6 22.696 4.28 24.187 2.68 1.491 23.314-.392 26.726-1.598 2.275-.805 9.968-3.657 23.078-8.558 1.803-12.922 1.803-20.02 0-21.294z" fill="#D9E8EC"/><path d="M200.786 69c-25.715.458-41.708 2.58-47.98 6.368-9.41 5.683-5.191 22.278-2.46 24.142 2.732 1.863 61.998 5.49 67.102 5.49 5.105 0 13.834-4.304 13.834-5.49 0-1.187 4.718-20.768 4.718-24.142v-3.595L200.786 69z" fill="#FFFDFA"/><path d="M238 75c-5.471 1.595-12.454 1.595-18.661 6.047-6.207 4.452-4.678 22.468-2.033 23.914 2.645 1.446 8.658 2.192 11.94-3.397C232.53 95.974 238 78.399 238 75zM216.928 1c.94.288-7.521 2.415-13.378 9.453C197.693 17.49 192.815 66.005 182 69c11.187-6.186 11.826-51.105 17.285-58.547 5.46-7.443 12.8-8.35 17.643-9.453zM157.93 0c.913.275-7.306 2.308-12.996 9.036-5.69 6.727-10.428 53.1-20.934 55.964 10.867-5.914 11.488-48.85 16.791-55.964 5.303-7.114 12.434-7.982 17.14-9.036z" fill="#D9E8EC"/></g></svg>