<svg width="190" height="325" xmlns="http://www.w3.org/2000/svg" xmlns:xlink="http://www.w3.org/1999/xlink"><defs><path d="M2.91 21.707c0 4.063 2.197 23.797.932 28.315C2.578 54.541.557 93.51.292 96.221c-.265 2.712.392 7.251 3.31 8.424 2.916 1.172 8.347 1.676 11.698 1.676 3.35 0 5.968.857 5.968-.82S8.914 100.819 8.914 93.085c0-7.733 10.39-37.79 11.42-44.38.688-4.393 1.673-19.69 2.956-45.89C11.371-.507 4.89-.507 3.842 2.815c-1.57 4.982-.932 14.83-.932 18.892z" id="a"/><path d="M9.935 105.21c0-3.274 2.19-8.103 2.19-9.44v-7.965c0-4.31-11.708-34.193-11.708-54.748 0-7.313 1.036-11.664 1.036-16.667 0-3.336-.345-7.357-1.036-12.065l21.03-4.08-.822 7.47c.078 5.918-.391 10.568-1.407 13.95-1.524 5.073-1.407 58.134 0 61.83 1.407 3.694 4.6 12.577 4.6 16.11 0 .417 2.892 5.606.806 5.606-2.366 0-8.803 1.763-10.394 1.763-1.59 0-4.295 1.511-4.295-1.763z" id="c"/><path d="M13.837 65.485L4.194 46.45c3.083-5.186 4.029-9.29 2.838-12.31-1.786-4.53-1.843-4.933-2.34-5.825-.498-.893-2.362.725-2.889-2.916-.526-3.64-2.567-6.075-.79-8.039 1.778-1.963 2.75-6.003 3.679-7.762.928-1.76 5.352-9.325 10.31-9.325 4.96 0 12.44 2.029 14.645 5.258 2.204 3.229 3.443 4.723 3.443 9.05v6.09c0 1.318-.692 6.537-2.053 7.644-1.36 1.106-3.114 8.251-5.408 10.356-.457.8-.457 2.326 0 4.58 2.78 5.96 3.652 10.34 2.615 13.14-1.555 4.2-5.776 13.99-8.619 13.39-1.895-.4-3.824-1.833-5.788-4.297z" id="e"/><path d="M.259 158.438c7.857 4.028 13.496 6.042 16.917 6.042 5.132 0 21.018-3.02 33.37-3.02 12.352 0 22.335 3.02 26.268 3.02s7.65-3.02 11.287-3.02c2.424 0 3.986-1.008 4.685-3.022-6.071-31.943-9.107-50.353-9.107-55.23 0-4.878-3.877-15.902-11.632-33.074-2.55-7.226-3.188-11.689-1.913-13.389 1.913-2.55 3.895-10.533 5.12-14.027 1.225-3.494 1.56-5.5 1.56-9.325 0-3.824-.62-4.702 2.248-4.702 2.868 0 10.346 1.12 10.346 1.12s-.884-8.628-1.807-10.936c-.924-2.308-1.8-8.49-5.423-11.008C78.555 5.35 61.051.28 59.794.28c-1.256 0-5.466 1.992-6.496 3.225.524 2.383-.867 14.113-2.752 14.113-1.885 0-8.038-9.68-8.038-12.062C42.508 3.174 34.1-.75 34.1.28c0 1.03-16.015 7.256-21.298 9.512C7.52 12.05 6.02 39 8.297 37.456c2.276-1.542 13.75-5.886 14.805-4.94 1.054.945 1.848 7.644 1.912 10.202.064 2.559-.257 22.968-2.535 26.447-2.277 3.478-15.971 27.681-19.096 50.444C1.3 134.785.26 147.728.26 158.44z" id="g"/><path d="M0 77.227c0 1.833 9.082 2.817 17.727 3.784 8.644.966 19.841-3.784 27.013-3.784 7.173 0 8.373 0 14.908.917 6.534.916 14.186 1.833 18.17.916 3.986-.916 9.226-1.115 9.226-2.949 2.451 0-6.903-37.613-7.86-43.35-.957-5.739-6.902-21.985-9.31-23.494-.748-1.258-1.951-4.332-3.609-9.222L18.71 2.55c-.55 1.7-1.834 4.357-3.853 7.97-3.029 5.419-10.344 17.428-12.63 30.948C-.06 54.988 0 72.378 0 77.227z" id="i"/><path d="M.757 4.515C1.406 2.298 4.204.333 8.305.333c4.102 0 7.84 1.136 7.84 1.136s1.472 11.85 1.472 12.402c0 .553-5.49-3.233-10.006-1.616C3.096 13.87.757 14.379.757 15.627c0 1.248 1.297 2.301.649 3.532-.649 1.23 1.415 3.02 2.035 3.02.62 0-1.387 1.187-2.035 0C.757 20.993-.543 9.98.757 4.515z" id="k"/><path d="M53.648 67.584l2.46-1.598-34.546-50.038 3.929-12.724-21.71 14.69h15.124l34.743 49.67z" id="m"/><path d="M1.31 3.464C3.028 1.554 4.73.598 6.412.598c2.524 0 7.111 0 8.087 1.433s1.295 4.889 1.295 7.065 1.62 5.103 1.62 5.688c0 .584-2.836-4.108-8.053-1.762-5.217 2.346-5.98 4.159-7.25 5.158-.847.665-1.504.665-1.971 0 1.314-5.501 1.97-8.938 1.97-10.312 0-1.374-.267-2.841-.802-4.404z" id="n"/><path d="M38.65 51.007c-1.208 0-22.436.6-36.781.6-2.492 0-2.492 3.37 0 3.37 1.368 0 7.203.012 10.806.007 5.148-.007 5.452 4.572 0 4.572-4.592 0-9.15.032-10.806 1.408-2.492 2.07-.824 4.456 1.843 4.456h50.467c5.332 0 3.888-4.82 0-5.864-3.889-1.043-5.352-3.368-5.352-5.659 0-2.29-8.968-2.89-10.177-2.89z" id="p"/><path d="M.554.37c1.073 18.43 1.61 28.355 1.61 29.776 0 2.13 1.95 4.287 4.513 4.287h42.55c2.844 0 5.107-3.223 6.077-7.005.646-2.521 2.585-11.54 5.816-27.058H.554z" id="q"/></defs><g fill="none" fill-rule="evenodd"><g transform="translate(71.41)"><g transform="translate(69.497 208.49)"><mask id="b" fill="#fff"><use xlink:href="#a"/></mask><use fill="#F4B1A1" xlink:href="#a"/><path d="M9.175 7.448c6.45-.706 9.674-.098 9.674 1.824 0 2.883-.505 33.493-1.51 38.234-1.005 4.74-10.176 39.03-10.176 43.246 0 4.215 2.012 10.869 11.686 14.048 6.45 2.12 11.54-14.41 15.272-49.589L30.489 9.272 18.849-2.414 9.175 7.448z" fill="#EB9C89" mask="url(#b)"/></g><g transform="translate(49.732 212.953)"><mask id="d" fill="#fff"><use xlink:href="#c"/></mask><use fill="#F4B1A1" xlink:href="#c"/><path d="M2.773 6.586c8.266-.778 12.668.394 13.205 3.516.806 4.684-1.417 20.26-1.417 31.02 0 10.76.12 41.268 3.414 45.92 3.294 4.652 3.294 11.016 3.294 12.393 0 1.377 1.617 2.976-8.112 5.317-6.486 1.56-3.243 2.363 9.73 2.408l4.293-7.725-5.911-25.414 1.617-58.04v-17.9L-.865.285l3.638 6.301z" fill="#EB9C89" mask="url(#d)"/></g><path d="M61.615 310.897c-.568 1.278-3.278 7.78-1.827 10.54 1.45 2.76 9.49 2.629 11.287 2.629 1.796 0 5.027-1.038 5.027-3.636s-1.063-8.288-2.284-9.533c-.5-.204 1.223 5.554-1.97 5.554s-8.337 1.952-10.233.793c-1.896-1.159.38-7.203 0-6.347z" fill="#13287E"/><path d="M74.696 313.28c.517 2.211 1.07 3.864 2.585 4.526 1.514.663 6.217 2.644 9.92 2.216 3.705-.428 7.109-.565 7.875-1.878.767-1.313-4.042-5.253-5.817-5.784-1.775-.532 1.697 1.279 0 1.625-1.697.346-8.123.655-9.856 0-1.732-.655-4.333-1.042-4.707-.706z" fill="#13287E"/><g transform="translate(57.383 9.564)"><mask id="f" fill="#fff"><use xlink:href="#e"/></mask><use fill="#F4B1A1" xlink:href="#e"/><path d="M4.343 20.384c-.318.236-1.723-2.147-2.1-2.147-.378 0-1.155 1.015-1.155 1.454 0 .44 1.42 4.697 1.42 6.504 0 1.806 2.069.421 2.554 2.05.323 1.087.47 1.988.443 2.702-3.654-1.29-5.48-2.35-5.48-3.178 0-1.243-2.336-9.425-2.336-10.18 0-.504.778-2.213 2.335-5.127 3.092 5.125 4.531 7.766 4.32 7.922z" fill="#EB9C89" mask="url(#f)"/></g><circle fill="#13287E" cx="80.682" cy="28.502" r="1"/><circle fill="#13287E" cx="70.481" cy="28.502" r="1"/><path d="M78.034 23.55c.72.862 2.778.85 4.31 1.074 1.531.225-.856-1.227-1.618-1.417-.763-.19-3.412-.52-2.692.343zM72.575 23.55c-.72.862-2.778.85-4.309 1.074-1.531.225.856-1.227 1.618-1.417.763-.19 3.411-.52 2.691.343z" fill="#13287E"/><ellipse fill="#EB9C89" transform="rotate(29 83.311 33.792)" cx="83.311" cy="33.792" rx="1.7" ry="1.275"/><ellipse fill="#EB9C89" transform="rotate(-12 67.371 32.517)" cx="67.371" cy="32.517" rx="1.7" ry="1.275"/><path d="M75.985 44.861c1.408 0 2.968-2.156 2.968-3.03 0-.873-2.47 0-3.878 0s-3.666-.704-3.666 0 3.167 3.03 4.576 3.03zM64.533 43.816c5.35 5.018 8.516 7.527 9.496 7.527h2.969c.651 0 6.307-3.167 6.307-3.764 0-.596-1.174 2.943 0 6.441 1.174 3.498-1.174 16.573-1.61 17.192-.435.618-6.833 7.2-6.188 4.534.645-2.665 4.443-11.994.576-17.128-3.866-5.134-6.293-7.924-8.028-10.033a61.475 61.475 0 0 1-3.522-4.77z" fill="#EB9C89"/><g transform="translate(25.503 56.107)"><mask id="h" fill="#fff"><use xlink:href="#g"/></mask><use fill="#4743CE" xlink:href="#g"/><use fill="#247FFB" xlink:href="#g"/><path d="M71.037 17.698c.715 0 3.44 10.688 4.343 10.688 1.326.627 1.888-1.264 4.49-1.694 1.09-.18 4.478.384 10.164 1.694-7.999 11.77-12.884 19.329-14.654 22.677-1.77 3.348 1.467 17.926 9.711 43.734l13.91 52.647-4.239 17.862H78.036c5.306-3.515 9.306-5.272 11.998-5.272 4.038 0-2.27-10.305-3.174-12.59-.904-2.285-21.072-3.065-26.383-3.065s-15.162 6.13-21.734 3.065c-6.571-3.065-13.149 0-18.481 0-3.555 0-8.02-1.022-13.398-3.065-2.63.362-3.944-.545-3.944-2.722 0-3.265 1.443-25.437 3.944-27.858 1.668-1.614 2.84-7.948 3.518-19.002l4.324-22.28 8.368-16.997V40.978c0-1.755-16.21 1.146-16.21-2.676 0-1.43 1.17-5.385 3.518-8.057 1.582-1.801 10.836.602 12.024-.637 1.187-1.239-2.144-7.18-2.144-7.18s1.543 1.266 3.256 4.264c1.141 1.998 2.14 4.777 2.995 8.337.547 6.053 3.184 9.829 7.912 11.325 7.092 2.246 10.249-3.731 20.195 0 6.63 2.488 11.905 2.488 15.824 0 4.09-3.906 5.152-9.276 3.187-16.109-2.947-10.25-3.225-12.547-2.594-12.547zM60.436-1.052L52.883 3.08c-2.231 9.126-2.935 13.989-2.11 14.587 1.026.746 4.036-9.834 4.036-11.503 0-1.669 7.187-4.062 10.59-3.084 3.404.977 11.036 1.134 18.841 7.313-1.487-2.092 4.212 4.797 4.322 4.897 1.27 1.155 1.522-2.915.756-12.21L60.436-1.052z" fill="#0A56DF" mask="url(#h)"/></g><g transform="translate(29.329 119.866)"><mask id="j" fill="#fff"><use xlink:href="#i"/></mask><use fill="#FFF" xlink:href="#i"/><path d="M10.767 16.653c1.393 1.608 5.473-8.37 9.159-8.37 3.685 0 13.713 7.08 25.674 6.032S58.58 11.2 64.792 11.2c4.647.95 14.695 24.51 14.695 30.837 0 4.217 2.245 15.372 6.734 33.464-7.927 3.187-14.6 4.484-20.015 3.89-8.124-.89 3.956 9.262 5.304 9.262 1.349 0 25.729 1.899 25.729 0 0-1.9 5.441-57.328 5.441-57.328s-7.73-8.486-23.193-25.456L66.206-5.424l-55.439 6.44c-1.53 8.66-1.53 13.871 0 15.637z" fill="#EFEFEF" mask="url(#j)"/></g><path d="M36.256 98.685c.377-1.971 5.239-2.629 7.692-2.629 1.635 0 3.732.876 6.29 2.63-.9 7.336-.572 11.004.982 11.004 5.578 1.847 30.315 6.29 34.65 6.29 4.335 0 13.456-11.175 13.456-12.928 0-1.753 5.264-9.122 6.246-9.122.94 0-.184 2.126 1.789 2.126 1.972 0 3.799-1.057 5.132 0 1.334 1.057-.323 6.597-3.002 7.517-2.68.921-2.508 1.308-3.448 1.308-.628 0-1.763 1.603-3.406 4.809-3.252 10.682-12.088 16.416-26.508 17.202-21.63 1.18-24.66-2.01-26.832-2.01-2.172 0-8.068 1.438-9.582-4.665-1.514-6.103-5.32-11.8-3.46-21.532z" fill="#E9A291"/><g transform="translate(33.154 86.074)"><mask id="l" fill="#fff"><use xlink:href="#k"/></mask><use fill="#FFF" xlink:href="#k"/><path d="M8.967 8.7C7.139 5.816 6.225 4.096 6.225 3.539c0-.836.334-2.102 1.395-2.102 2.304-.36 4.244-1.213 6.288.889 2.043 2.101 3.485 11.381 3.485 12.235 0 .854 2.144-.821 2.144-.821s-.827-9.707-.827-10.201c0-.33-1.6-2.522-4.802-6.578l-10.524.542-1.12 4.823L8.967 8.7z" fill="#EFEFEF" mask="url(#l)"/></g><g transform="translate(0 49.094)"><use fill="#4743CE" xlink:href="#m"/><use fill="#247FFB" xlink:href="#m"/></g><path fill="#13287E" d="M.873 65.645l3.146 1.477 21.742-14.365V49.13zM56.152 115.09L40.5 92.45 37.8 94.052l15.877 22.758z"/><path d="M101.967 98.035c0-1.989 8.995-4.154 10.738-3.578 1.744.575 3.95 1.709 3.95 2.407 0 .699 1.389 19.763-1.538 21.55-2.926 1.789-6.807 1.544-8.74 1.544-1.932 0-13.677 2.04-27.306-1.543-13.629-3.584-13.87-3.672-15.454-3.672-1.584 0-4.043-.16-5.031-1.6-.988-1.44-3.786-3.215-4.98-3.215-1.193 0-5.429 2.294-6.66 3.215-1.232.92-4.078 2.874-4.659 2.874-.58 0-3.814-3.004-3.224-4.596.59-1.592-.59-1.83 0-3.343s3.12-6.726 3.823-6.726c.701 0 7.953-.964 9.286-.964 1.332 0 9.14 5.973 10.526 6.63 1.387.656 15.401 1.06 18.36 1.06 2.959 0 21.053-2.785 22.264-3.194 1.211-.409-1.355-2.691-1.355-6.85z" fill="#F4B1A1"/><g transform="translate(100.1 82.886)"><mask id="o" fill="#fff"><use xlink:href="#n"/></mask><use fill="#FFF" xlink:href="#n"/><path d="M2.646 17.59c-2.267 0 .42-5.613.514-6.865.094-1.251 0-4.859 0-6.322s2.305-2.234 6.544-2.99c2.827-.504 4.743.358 5.749 2.586L14.3-6.49-.706 1.413v9.907c-2.481 6.766-2.749 9.388-.803 7.865 2.918-2.283 6.422-1.596 4.155-1.596z" fill="#EFEFEF" mask="url(#o)"/></g><path d="M99.326 103.052c0-1.753 5.264-9.122 6.246-9.122.94 0-.184 2.126 1.789 2.126 1.972 0 3.799-1.057 5.132 0 1.334 1.057-.323 6.597-3.002 7.517-2.68.921-2.508 1.308-3.448 1.308-.628 0-3.372.39-8.234 1.169 1.011-.83 1.517-1.83 1.517-2.998z" fill="#E9A291"/><path d="M77.823 55.116c-.55.62.232 4.848 1.111 4.848s6.45-2.365 6.718-3.09c.267-.725-1.423-5.16-2.16-5.16-.742.269 1.212 1.382-5.669 3.402zM67.99 60.97c.418.353 2.33-3.607 2.33-4.376 0-.77-8.317-2.248-8.698-3.154-.38-.905 1.853-1.764 1.853-1.764s-2.775.136-3.2 1.27c-.425 1.134-1.21 4.124-.859 4.549.353.425 4.059 2.005 8.574 3.476z" fill="#FFF"/><path d="M58.997 26.195c.997-.982 1.918 2.82 2.988 4.236.75-1.417-1.527-2.695 0-4.643 1.527-1.947 2.02-1.848 1.507-2.704-.513-.855-.654-2.108.36-3.858 1.015-1.75 3.926-4.118 6.775-4.118 2.848 0 .217-2.847.217-3.315 0-.468 4.187 2.668 4.18 2.668-.007 0 7.248.817 10.36 3.404 3.113 2.587 4.743 6.35 3.72 8.905-1.023 2.555.965 4.862 1.22 5.747.144.498-.04-1.395.757-3.192.798-1.797.862-4.128.862-5.214 0-1.086.756-8.14-4.844-12.112-5.6-3.973-8.985-6.087-12.068-5.239-3.084.849.101-2.715-8.428 2.288-8.53 5.003-8.88 17.147-7.606 17.147z" fill="#13287E"/><path d="M62.623 13.442c2.386-.829 2.386-1.96 0-3.398C59.043 7.89 68.108-.829 70.68.494c2.572 1.323-.04 2.647 9.187 1.323 9.226-1.323 4.405 4.294 4.405 8.227 0 3.934-2.7.911-8.587 0-5.887-.91-11.552 5.26-11.552 4.343 0-.61-.504-.926-1.51-.945z" fill="#13287E"/><path d="M77.154 9.108c1.224-.151 7.435.612 7.26.852.134.1-3.962-.061-6.708-.439-2.746-.377-12.842.58-13.2 2.018-.36 1.438 1.055 3.784-1.223 4.901-1.518.745-1.476-.295.127-3.118-3.48 1.015-4.793.881-3.94-.401.851-1.282 2.388-2.046 4.61-2.291a4146.33 4146.33 0 0 0 13.074-1.522z" stroke="#247FFB" fill="#247FFB"/><path d="M75.595 25.078c.45-1.052 1.128 4.212 1.575 5.89.383 1.444 1.865 2.247 1.255 3.652-1.649.65-3.324.65-3.797.335 0-2.192.504-3.353.967-9.877z" fill="#EB9C89"/></g><g transform="translate(0 258.86)"><use fill="#FFF" xlink:href="#p"/><use fill="#F4FCFD" xlink:href="#p"/></g><g transform="translate(21.678 286.913)"><mask id="r" fill="#fff"><use xlink:href="#q"/></mask><use fill="#4743CE" xlink:href="#q"/><use fill="#247FFB" xlink:href="#q"/><path d="M6.573 2.77c29.396.93 40.005.84 44.896 2.498 5.408 1.834 3.51 15.536 0 25.463-1.434 4.057-9.792 2.31-14.302 3.711C55.161 39.55 64.15 28.452 64.13 1.151L4.85-.98C.418.44.992 1.69 6.573 2.77z" fill="#0A56DF" mask="url(#r)"/></g><path d="M50.187 287.365c-1.933-8.19-5.535-23.447-5.535-26.001 0-2.554 3.217-2.554 4.665-1.277.965.851 2.702 9.944 5.21 27.278-1.674 2.66-3.12 2.66-4.34 0z" fill="#13287E"/><path d="M19.92 289.314c17.435 0 63.829.262 65.443 0 1.357-1.05-1.187-5.32-2.238-5.32H23.652c-3.731 0-3.731 5.32-3.731 5.32z" fill="#13287E"/></g></svg>