<svg width="342" height="221" xmlns="http://www.w3.org/2000/svg" xmlns:xlink="http://www.w3.org/1999/xlink"><defs><ellipse id="a" cx="6.755" cy="5.335" rx="3.941" ry="5.335"/><ellipse id="b" cx="5.348" cy="5.335" rx="2.139" ry="5.335"/><ellipse id="c" cx="5.348" cy="5.335" rx="2.139" ry="5.335"/><path d="M2.251 7.265C3.93.13 17.56.13 26.904.13c9.346 0 24.072 5.122 24.072 7.134 0 5.931 9.061 97.385 10.923 100.975 1.862 3.59 31.223 4.595 34.244 10.507 3.02 5.912-51.924 6.41-54.705 6.161-2.782-.249-28.798-3.676-33.992-6.16C2.25 116.262-2.874 99.871 2.25 7.264z" id="d"/><path d="M16.276.132c.77.51 1.296 1.409 1.577 2.699.423 1.935 5.615 39.263 5.615 41.15 0 1.886-.942 4.131-3.037 4.131-2.096 0-20.206.509-20.206 1.066 0 .458 21.58 1.13 39.9.458 4.518 0 4.091-4.226 3.107-6.752-.983-2.527-12.028-38.648-12.83-40.053-.804-1.406-1.109-2.699-1.955-2.699H16.276z" id="f"/></defs><g fill="none" fill-rule="evenodd"><path d="M111.251 123.32h6.02a2 2 0 0 1 1.993 2.158l-2.388 30.228a2 2 0 0 1-1.994 1.843h-1.408a2 2 0 0 1-1.995-1.854l-2.222-30.227a2 2 0 0 1 1.994-2.147z" fill="#13287E"/><path d="M63.1 169.376c-.594-1.63-.594-3.195 0-4.693 19.197-6.048 39.778-11.413 51.117-11.413 11.34 0 51.315 11.524 52.391 12.446.717.614.99 2.17.82 4.668h-2.323v-2.57c-24.391-6.472-41.354-9.708-50.888-9.708-14.3 0-48.607 8.825-48.607 8.825v2.445H63.1z" fill="#13287E"/><path d="M110.57 158.362c2.807 1.607 4.258 12.407 4.258 14.458v2.912h2.671v-2.912c-1.581-9.414-1.428-14.353.46-14.815 1.888-.463.633-1.507-3.765-3.13-4.287 1.253-5.495 2.416-3.624 3.487zM63.333 179.464c.941 0 2.042.098 3.113-.106.297-.057.346-2.948.346-5.244 0-3.299.039-5.334-1.048-5.334h-2.892c-2.177 0-3.941 2.388-3.941 5.334 0 2.947 1.856 5.35 4.422 5.35z" fill="#13287E"/><g transform="translate(58.91 168.78)"><use fill="#4743CE" xlink:href="#a"/><use fill="#247FFB" xlink:href="#a"/></g><path d="M117 180.478c-.7.061-1.51.23-2.325.096-.227-.037-.515-2.914-.715-5.2-.288-3.287-.494-5.313.315-5.384l2.151-.188c1.62-.141 3.14 2.123 3.397 5.058.257 2.935-.915 5.45-2.823 5.618z" fill="#13287E"/><g transform="scale(-1 1) rotate(5 -2001.288 -1282.3)"><use fill="#4743CE" xlink:href="#b"/><use fill="#247FFB" xlink:href="#b"/></g><path d="M166.831 177.86c-.703 0-1.524.098-2.324-.106-.222-.057-.259-2.949-.259-5.244 0-3.299-.029-5.335.783-5.335h2.16c1.625 0 2.943 2.389 2.943 5.335s-1.387 5.35-3.303 5.35z" fill="#13287E"/><g transform="matrix(-1 0 0 1 170.15 167.175)"><use fill="#4743CE" xlink:href="#c"/><use fill="#247FFB" xlink:href="#c"/></g><path d="M143.229 113.95c-3.13 1.798-1.096 1.798 6.103 0 4.385-4.073 7.812-8.286 10.283-12.638 3.706-6.528 1.313-9.47 0-10.256-.875-.524-1.928-1-3.157-1.428 2.961 2.328 3.576 5.09 1.844 8.284-2.598 4.79-10.379 13.342-15.073 16.039z" fill="#13287E"/><path d="M130.04 86.42c1.39 16.579 2.697 25.41 3.917 26.493 1.831 1.625 7.47 1.514 8.794.897 1.324-.616 10.144-7.456 13.461-12.001 3.317-4.545 5.226-9.221 0-11.378-3.484-1.437-12.208-2.775-26.172-4.012z" stroke="#D9E8EC" stroke-width="3" stroke-linecap="round" stroke-linejoin="round"/><g transform="translate(72.281 .503)"><mask id="e" fill="#fff"><use xlink:href="#d"/></mask><use fill="#4743CE" xlink:href="#d"/><use fill="#247FFB" xlink:href="#d"/><path d="M46.025 8.964c1.06 34.031 1.589 56.149 1.589 66.353 0 3.546 2.71 14.52-3.786 22.205-9.52 11.263-30.244 19.412-32.828 20.647-4.348 2.078 26.493-6.87 38.25-6.87 11.759 0 37.917 2.198 34 7.869-3.918 5.67-37.254 4.312-39.422 5.852-2.168 1.54 43.557 5.353 45.854 3.225 2.298-2.128 10.234-4.478 10.234-7.277 0-2.799-6.764-9.669-10.234-9.669-3.47 0-15.188-1.913-20.038-5.602s-5.227-17.406-7.443-26.96c-2.217-9.553-6.724-55.074-6.724-75.02C55.477-16.228 19.1-8.912 11 1.504c14.605 0 26.28 2.486 35.025 7.46z" fill="#0A56DF" mask="url(#e)"/></g><path d="M79.143 118.449c-2.112 1.109-.807 1.663 3.913 1.663 5.18-5.084 8.97-9.775 11.369-14.072 3.6-6.445 1.275-9.935 0-10.711-.85-.518-1.915-.992-3.193-1.423 3.384 2.652 4.235 5.554 2.553 8.707-2.524 4.73-11.475 14.173-14.642 15.836z" fill="#13287E"/><path d="M72.281 89.628c.504 13.722 1.316 22.014 2.438 24.874 1.683 4.29 3.38 4.962 5.035 4.342 1.654-.62 9.744-9.984 12.551-13.67 2.807-3.688 4.064-8.6-1.11-10.768-3.45-1.444-9.754-3.037-18.914-4.778z" stroke="#D9E8EC" stroke-width="2" stroke-linecap="round" stroke-linejoin="round"/><g><g transform="translate(84.544 105.474)" fill="#13287E"><rect transform="rotate(-6 6.614 57.495)" x="6.106" width="1.018" height="114.99" rx=".509"/><rect transform="rotate(-4 9.159 57.495)" x="8.65" width="1.018" height="114.99" rx=".509"/><rect transform="rotate(4 17.808 57.495)" x="17.299" width="1.018" height="114.99" rx=".509"/><rect transform="rotate(2 15.264 57.495)" x="14.755" width="1.018" height="114.99" rx=".509"/></g><g transform="translate(313.507 97.333)" fill="#13287E"><rect transform="rotate(-3 3.053 47.065)" x="2.544" width="1.018" height="94.129" rx=".509"/><rect transform="rotate(4 10.176 47.065)" x="9.667" width="1.018" height="94.129" rx=".509"/><rect transform="rotate(2 7.748 47.054)" x="7.239" y="-.011" width="1.018" height="94.129" rx=".509"/></g><g transform="translate(216.834 96.824)" fill="#13287E"><rect transform="rotate(-5 4.07 37.906)" x="3.562" y=".509" width="1.018" height="74.795" rx=".509"/><rect transform="rotate(3 10.097 37.881)" x="9.589" y=".484" width="1.018" height="74.795" rx=".509"/><path d="M4.722.507c.281-.01.518.21.53.49L8.328 74.73a.505.505 0 0 1-.487.526.512.512 0 0 1-.53-.49L4.235 1.032a.505.505 0 0 1 .487-.526z"/></g><g transform="translate(14.329 95.297)" fill="#13287E"><rect transform="rotate(-5 5.088 48.337)" x="4.579" width="1.018" height="96.673" rx=".509"/><rect transform="rotate(-2 7.632 48.845)" x="7.123" y=".509" width="1.018" height="96.673" rx=".509"/><rect transform="rotate(4 14.247 48.845)" x="13.738" y=".509" width="1.018" height="96.673" rx=".509"/><rect transform="rotate(2 11.703 48.845)" x="11.194" y=".509" width="1.018" height="96.673" rx=".509"/></g><path fill="#D2A57A" d="M.82 95.105l88.998 9.331 251.786-8.035-97.13-5.964z"/><path fill="#9D7753" d="M89.123 103.947L342 95.807v7.631l-252.877 9.668z"/><path fill="#E5C2A0" d="M.591 94.789l88.532 9.158v9.159L.591 102.93z"/></g><g><path d="M172.366 7.373l70.772 3.597a4 4 0 0 1 3.758 4.552l-8.759 62.18a4 4 0 0 1-3.907 3.442l-68.626.925a4 4 0 0 1-4.034-4.394l6.613-66.702a4 4 0 0 1 4.183-3.6z" fill="#D9E8EC"/><path d="M175.284 6.955l70.845 3.6a4 4 0 0 1 3.758 4.553l-8.762 62.204a4 4 0 0 1-3.882 3.44l-70.058 1.383a4 4 0 0 1-4.05-4.47l7.974-67.187a4 4 0 0 1 4.175-3.523z" fill="#F4FBFD"/><g transform="translate(189.358 45.943)"><mask id="g" fill="#fff"><use xlink:href="#f"/></mask><use fill="#D9E8EC" xlink:href="#f"/><path d="M18.139.124L30.022-.25l15.252 34.336V49.17c-18.973 1.126-28.851 1.432-29.634.92-1.005-.66 25.667.135 25.667-4.137 0-2.848-4.41-17.368-13.23-43.56L18.139.124z" fill="#D0E1E5" mask="url(#g)"/></g></g><g><path d="M144.908 96.365c.768-2.905 11.932-3.078 16.362-.802 2.033 1.044 2.666 1.733-.732 1.733-.365 0-9.74-1.254-11.166-1.254-1.426 0-4.536.551-4.464.323z" fill="#FFF"/><path d="M145.021 97.118c.529.54 15.978.286 16.533.15.645-.402-2.695-1.676-6.272-2.122-3.577-.445-11.684-.427-10.26 1.972z" fill="#D9E8EC"/></g><g><path d="M99.662 97.1c4.637 0 7.419-.984 7.95-1.619.533-.634-3.422.294-8.058.294-4.637 0-8.331-.57-7.516 0 .816.57 2.987 1.325 7.624 1.325z" fill="#BDD0D5"/><path d="M99.554 96.486c4.636 0 8.395-.627 8.395-1.189s-3.759-.54-8.395-.54c-4.637 0-8.395-.022-8.395.54s3.758 1.19 8.395 1.19z" fill="#D9E8EC"/><path d="M92.167 85.338c-.663 1.504 1.104 8.92 2.946 9.55 1.843.63 8.186.351 8.58 0 .395-.352 2.683-1.385 3.424-9.55-1.106-.474-10.934 0-14.95 0z" fill="#FFF"/><path d="M92.43 86.992c-1.794-.437-2.69.146-2.69 1.747 0 1.602 1.574 3.12 4.724 4.555" stroke="#D9E8EC" stroke-width="2" stroke-linecap="round" stroke-linejoin="round"/></g></g></svg>