<?xml version="1.0" encoding="utf-8"?>
<!-- Generator: Adobe Illustrator 21.0.0, SVG Export Plug-In . SVG Version: 6.00 Build 0)  -->
<svg version="1.1" id="Layer_1" xmlns="http://www.w3.org/2000/svg" xmlns:xlink="http://www.w3.org/1999/xlink" x="0px" y="0px"
	 width="155.1px" height="45.4px" viewBox="0 0 155.1 45.4" style="enable-background:new 0 0 155.1 45.4;" xml:space="preserve">
<style type="text/css">
	.st0{fill:#247FFB;}
</style>
<g id="Page-1">
	<g id="Logo-example-16">
		<g id="XMLID_88_">
			<path id="XMLID_267_" class="st0" d="M57.4,45.3c1.2,0,2-1.2,1.4-2.3L56,37.2L38.1,1c-0.3-0.5-0.8-0.9-1.4-0.9h-0.5
				c-1.2,0-1.9,1.2-1.4,2.3l15.4,31.2c0.5,1-0.2,2.3-1.4,2.3h0c-0.6,0-1.1-0.3-1.4-0.9l-15.8-32c-0.6-1.2-2.2-1.2-2.8,0l-17.3,34
				c-0.5,1,0.2,2.3,1.4,2.3l5.4,0.1l28.5,0.2H52c0.6,0,1.1,0.3,1.4,0.9l2,4.2c0.3,0.5,0.8,0.9,1.4,0.9L57.4,45.3z M17.3,33.3
				l11.4-22.5c0.6-1.2,2.2-1.1,2.8,0l0.2,0.4c0.2,0.4,0.2,1,0,1.4L20.5,34.7c-0.3,0.5-0.8,0.9-1.4,0.9l-0.4,0
				C17.5,35.5,16.8,34.3,17.3,33.3z M25.3,33.3l7.4-14.5c0.6-1.2,2.2-1.1,2.8,0l7.2,14.6c0.5,1-0.3,2.3-1.4,2.3l-14.6-0.1
				C25.5,35.6,24.7,34.4,25.3,33.3z"/>
			<path id="XMLID_269_" class="st0" d="M23.8,0L23.8,0c-0.7,0-1.3,0.4-1.6,1L1.3,42.4c-0.6,1.2,0.2,2.6,1.5,2.6l0,0
				c0.7,0,1.3-0.4,1.6-1l1.3-2.6l0,0L25.4,2.6C26,1.4,25.1,0,23.8,0z"/>
			<path id="XMLID_270_" class="st0" d="M8.8,42.4L8.8,42.4C8.2,43.6,9.1,45,10.4,45l39.2,0.3c1.3,0,2.2-1.4,1.6-2.6l0,0
				c-0.3-0.6-0.9-1-1.6-1l-39.2-0.3C9.7,41.4,9.1,41.8,8.8,42.4z"/>
			<circle class="st0" cx="26.7" cy="34" r="1.1"/>
			
				<ellipse transform="matrix(0.9977 -6.730036e-02 6.730036e-02 0.9977 -2.1303 2.1031)" class="st0" cx="30.1" cy="32.7" rx="2" ry="2"/>
			
				<ellipse transform="matrix(0.9977 -6.730036e-02 6.730036e-02 0.9977 -1.8377 2.0932)" class="st0" cx="30.1" cy="28.3" rx="0.6" ry="0.6"/>
			
				<ellipse transform="matrix(0.9977 -6.730036e-02 6.730036e-02 0.9977 -1.6995 2.4465)" class="st0" cx="35.5" cy="26.4" rx="0.5" ry="0.5"/>
			
				<ellipse transform="matrix(0.9977 -6.730036e-02 6.730036e-02 0.9977 -1.7873 2.3064)" class="st0" cx="33.3" cy="27.7" rx="1" ry="1"/>
		</g>
		<g>
			<path class="st0" d="M70.5,11.2c0-0.9,0.1-1.7,0.4-2.5c0.3-0.8,0.7-1.4,1.3-2s1.2-1,2-1.3s1.6-0.5,2.5-0.5c0.5,0,1,0.1,1.6,0.2
				c0.6,0.1,1.1,0.3,1.5,0.6s0.6,0.7,0.6,1.1c0,0.4-0.1,0.7-0.3,1c-0.2,0.3-0.5,0.4-0.8,0.4c-0.2,0-0.6-0.1-1.1-0.3
				c-0.5-0.2-1-0.3-1.5-0.3c-0.7,0-1.3,0.2-1.8,0.5c-0.5,0.3-0.8,0.8-1.1,1.4c-0.2,0.6-0.3,1.2-0.3,1.9c0,1.4,0.4,2.5,1.1,3.2
				c0.6,0.5,1.3,0.8,2.1,0.8c0.5,0,0.8-0.1,1.1-0.2l0.8-0.4c0.2-0.1,0.4-0.1,0.6-0.1c0.4,0,0.7,0.1,0.9,0.4c0.2,0.3,0.3,0.6,0.3,1
				c0,0.5-0.3,1-0.9,1.3c-0.8,0.5-1.8,0.7-3.1,0.7c-0.8,0-1.5-0.1-2.3-0.4c-0.7-0.3-1.4-0.7-1.9-1.2C71.1,15.3,70.5,13.5,70.5,11.2z
				"/>
			<path class="st0" d="M85.1,15.2h3c0.4,0,0.8,0.1,1,0.3c0.3,0.2,0.4,0.5,0.4,1c0,0.4-0.1,0.7-0.4,0.9c-0.3,0.2-0.6,0.3-1,0.3h-4
				c-0.6,0-1-0.2-1.3-0.5c-0.3-0.3-0.5-0.8-0.5-1.3V6.7c0-0.4,0.1-0.8,0.4-1.1c0.3-0.3,0.6-0.5,1.1-0.5c0.4,0,0.8,0.2,1.1,0.5
				c0.3,0.3,0.4,0.7,0.4,1.1V15.2z"/>
			<path class="st0" d="M93.5,7.8v2.4h2.7c0.4,0,0.7,0.1,1,0.3c0.3,0.2,0.4,0.5,0.4,1c0,0.4-0.1,0.7-0.4,0.9c-0.3,0.2-0.6,0.3-1,0.3
				h-2.7v2.4h3c0.4,0,0.8,0.1,1,0.3c0.3,0.2,0.4,0.5,0.4,1c0,0.4-0.1,0.7-0.4,0.9c-0.3,0.2-0.6,0.3-1,0.3h-4.1c-0.6,0-1-0.2-1.3-0.5
				c-0.3-0.3-0.5-0.7-0.5-1.3V7c0-0.5,0.2-1,0.5-1.3c0.3-0.3,0.7-0.5,1.3-0.5h4.1c0.4,0,0.8,0.1,1,0.3c0.3,0.2,0.4,0.5,0.4,1
				c0,0.4-0.1,0.7-0.4,0.9c-0.3,0.2-0.6,0.3-1,0.3H93.5z"/>
			<path class="st0" d="M107.1,15.4h-4.8l-0.3,1.1c-0.3,1-0.7,1.5-1.3,1.5c-0.4,0-0.8-0.1-1.1-0.3c-0.3-0.2-0.5-0.5-0.6-0.9
				c0-0.4,0-0.7,0.1-0.9l3.4-9.3c0.2-0.5,0.4-0.9,0.8-1.2c0.4-0.3,0.8-0.4,1.3-0.4c0.5,0,0.9,0.1,1.3,0.4c0.4,0.3,0.6,0.7,0.8,1.2
				l3.4,9.3c0.1,0.2,0.1,0.5,0.1,0.9c0,0.4-0.2,0.6-0.5,0.8c-0.3,0.2-0.7,0.3-1.1,0.3c-0.3,0-0.5-0.1-0.7-0.4
				c-0.2-0.2-0.4-0.5-0.5-0.8L107.1,15.4z M106.3,12.8l-1.5-4.8l-1.5,4.8H106.3z"/>
			<path class="st0" d="M114.7,10.2v6.2c0,0.5-0.1,0.8-0.4,1.1c-0.3,0.3-0.6,0.5-1.1,0.5c-0.4,0-0.8-0.2-1.1-0.5
				c-0.3-0.3-0.4-0.7-0.4-1.1V6.5c0-0.4,0.1-0.8,0.4-1.1c0.3-0.3,0.6-0.4,1-0.4c0.5,0,0.9,0.2,1.2,0.6l5.5,7v-6
				c0-0.4,0.1-0.8,0.4-1.1c0.3-0.3,0.6-0.5,1.1-0.5c0.4,0,0.8,0.2,1,0.5c0.3,0.3,0.4,0.7,0.4,1.1v9.7c0,0.5-0.1,0.9-0.4,1.2
				c-0.3,0.3-0.6,0.4-1,0.4c-0.5,0-0.9-0.2-1.1-0.5L114.7,10.2z"/>
			<path class="st0" d="M125.2,16.4V6.7c0-0.4,0.1-0.8,0.4-1.1c0.3-0.3,0.6-0.5,1.1-0.5c0.4,0,0.8,0.2,1.1,0.5
				c0.3,0.3,0.4,0.7,0.4,1.1v9.7c0,0.5-0.1,0.8-0.4,1.1c-0.3,0.3-0.6,0.5-1.1,0.5c-0.4,0-0.8-0.2-1.1-0.5
				C125.3,17.2,125.2,16.8,125.2,16.4z"/>
			<path class="st0" d="M133.2,10.2v6.2c0,0.5-0.1,0.8-0.4,1.1c-0.3,0.3-0.6,0.5-1.1,0.5c-0.4,0-0.8-0.2-1.1-0.5
				c-0.3-0.3-0.4-0.7-0.4-1.1V6.5c0-0.4,0.1-0.8,0.4-1.1c0.3-0.3,0.6-0.4,1-0.4c0.5,0,0.9,0.2,1.2,0.6l5.5,7v-6
				c0-0.4,0.1-0.8,0.4-1.1c0.3-0.3,0.6-0.5,1.1-0.5c0.4,0,0.8,0.2,1,0.5c0.3,0.3,0.4,0.7,0.4,1.1v9.7c0,0.5-0.1,0.9-0.4,1.2
				c-0.3,0.3-0.6,0.4-1,0.4c-0.5,0-0.9-0.2-1.1-0.5L133.2,10.2z"/>
			<path class="st0" d="M152.2,12.9h-1.7c-0.4,0-0.7-0.1-1-0.3c-0.3-0.2-0.4-0.5-0.4-0.9c0-0.4,0.1-0.7,0.4-0.9
				c0.3-0.2,0.6-0.3,1-0.3h3.1c0.6,0,1,0.2,1.2,0.5c0.2,0.3,0.3,0.8,0.3,1.4c0,1.7-0.5,3.1-1.6,4.2c-1.1,1.1-2.4,1.7-4.1,1.7
				c-0.9,0-1.8-0.2-2.6-0.5c-0.8-0.3-1.5-0.8-2.1-1.5c-1.1-1.2-1.6-2.8-1.6-4.7c0-1.2,0.3-2.3,0.8-3.2s1.3-1.8,2.3-2.4
				c1-0.6,2-0.9,3.2-0.9c1.3,0,2.5,0.3,3.5,0.9c0.8,0.5,1.2,1,1.3,1.6c0,0.4-0.1,0.7-0.4,1c-0.2,0.3-0.5,0.4-0.9,0.4
				c-0.3,0-0.6-0.1-1-0.4L151.2,8c-0.5-0.3-1.1-0.5-1.8-0.5c-0.7,0-1.3,0.2-1.8,0.6c-0.5,0.4-0.9,0.9-1.1,1.5
				c-0.2,0.6-0.4,1.3-0.4,2c0,0.7,0.1,1.4,0.4,2c0.2,0.6,0.6,1.1,1.1,1.5s1.1,0.6,1.8,0.6c0.9,0,1.6-0.3,2.1-1
				C151.8,14.2,152,13.6,152.2,12.9z"/>
		</g>
		<g>
			<path class="st0" d="M69.1,33.7v2.7c0,0.4-0.1,0.8-0.4,1.1c-0.2,0.3-0.6,0.5-1,0.5c-0.4,0-0.8-0.2-1-0.5
				c-0.3-0.3-0.4-0.7-0.4-1.1v-9.2c0-0.5,0.2-1,0.5-1.3c0.3-0.3,0.7-0.5,1.3-0.5h2.9c1.4,0,2.4,0.3,3.1,1c0.3,0.2,0.5,0.5,0.7,0.9
				c0.2,0.3,0.4,0.7,0.5,1c0.1,0.4,0.2,0.7,0.2,1.1c0,1.2-0.3,2.2-0.9,2.9c-0.7,0.9-1.8,1.3-3.1,1.3H69.1z M69.1,31.3h1.4
				c0.6,0,1.1-0.2,1.4-0.5c0.3-0.3,0.5-0.7,0.5-1.3c0-0.5-0.2-0.9-0.5-1.2c-0.3-0.3-0.7-0.4-1.2-0.4h-1.6V31.3z"/>
			<path class="st0" d="M79.8,32.7v3.6c0,0.4-0.1,0.8-0.4,1.1c-0.2,0.3-0.6,0.5-1,0.5c-0.4,0-0.8-0.2-1-0.5
				c-0.3-0.3-0.4-0.7-0.4-1.1v-9.2c0-0.5,0.2-1,0.5-1.3c0.3-0.3,0.7-0.4,1.3-0.4h2.8c1.3,0,2.3,0.3,3.1,1c0.4,0.3,0.7,0.7,0.9,1.2
				c0.2,0.5,0.3,1,0.3,1.5c0,1.1-0.3,2-1,2.6c-0.4,0.4-1.1,0.7-1.9,0.9l2.4,2.6c0.4,0.4,0.6,0.7,0.6,1c0,0.2,0,0.3,0,0.3
				c0,0.3-0.1,0.6-0.3,0.9c-0.2,0.3-0.5,0.4-0.8,0.4c-0.6,0-1.1-0.2-1.4-0.6L79.8,32.7z M79.8,30.8h1.8c0.4,0,0.8-0.1,1.1-0.4
				c0.3-0.3,0.4-0.6,0.4-1c0-0.4-0.2-0.8-0.5-1c-0.3-0.3-0.7-0.4-1.1-0.4h-1.7V30.8z"/>
			<path class="st0" d="M87.5,31.5c0-1,0.2-1.8,0.5-2.7c0.3-0.8,0.8-1.6,1.5-2.2c1.1-1,2.5-1.5,4.1-1.5c0.9,0,1.7,0.2,2.5,0.5
				c0.8,0.3,1.4,0.8,1.9,1.4c0.5,0.6,1,1.3,1.2,2c0.3,0.8,0.4,1.6,0.4,2.5c0,1-0.2,1.9-0.5,2.8c-0.3,0.9-0.8,1.6-1.5,2.3
				c-0.5,0.5-1.2,0.9-1.9,1.1c-0.7,0.2-1.4,0.4-2.2,0.4c-0.8,0-1.7-0.2-2.4-0.5c-0.8-0.3-1.4-0.8-2-1.4C88,35.1,87.5,33.5,87.5,31.5
				z M90.5,31.5c0,0.7,0.1,1.3,0.3,1.9c0.2,0.6,0.6,1.1,1,1.5c0.5,0.4,1,0.6,1.7,0.6c0.7,0,1.3-0.2,1.7-0.6c0.5-0.4,0.8-0.9,1-1.5
				c0.2-0.6,0.3-1.3,0.3-2c0-0.7-0.1-1.3-0.3-1.9c-0.2-0.6-0.6-1.1-1-1.4c-0.5-0.4-1-0.5-1.7-0.5c-0.4,0-0.8,0.1-1.2,0.3
				c-0.4,0.2-0.7,0.4-1,0.7C90.8,29.3,90.5,30.3,90.5,31.5z"/>
			<path class="st0" d="M101.4,36v-8.9c0-0.5,0.2-1,0.5-1.3c0.3-0.3,0.7-0.5,1.3-0.5h2.7c1.6,0,2.9,0.4,3.9,1.1
				c0.7,0.5,1.3,1.3,1.7,2.2c0.4,0.9,0.6,1.9,0.6,2.9c0,1.2-0.2,2.2-0.7,3.2c-0.5,0.9-1.1,1.7-2,2.2c-0.9,0.5-1.9,0.8-3.1,0.8
				l-3.1,0c-0.5,0-0.9-0.2-1.2-0.5C101.6,37,101.4,36.5,101.4,36z M104.2,35.3h1.4c1.1,0,1.8-0.3,2.4-0.8c0.7-0.7,1-1.6,1-2.9
				c0-1.3-0.4-2.3-1.1-2.9c-0.6-0.5-1.4-0.8-2.5-0.8h-1.1V35.3z"/>
			<path class="st0" d="M124.3,26.8v5.5c0,0.8-0.1,1.5-0.2,2c-0.1,0.6-0.4,1.1-0.8,1.6c-0.5,0.6-1.2,1.2-1.9,1.5
				c-0.8,0.4-1.6,0.5-2.4,0.5c-0.7,0-1.4-0.1-2.1-0.4c-0.7-0.2-1.2-0.6-1.7-1c-0.5-0.4-0.9-1-1.2-1.6c-0.3-0.6-0.4-1.3-0.4-2v-6.3
				c0-0.4,0.1-0.8,0.4-1.1c0.3-0.3,0.6-0.5,1-0.5c0.4,0,0.8,0.2,1,0.5s0.4,0.7,0.4,1.1v5.8c0,0.8,0.2,1.4,0.6,1.9
				c0.2,0.3,0.5,0.5,0.9,0.6c0.4,0.1,0.7,0.2,1.1,0.2c0.4,0,0.8-0.1,1.1-0.3c0.4-0.2,0.7-0.4,0.9-0.7c0.4-0.5,0.5-1.2,0.5-2.1v-5.5
				c0-0.4,0.1-0.8,0.4-1.1s0.6-0.5,1-0.5c0.4,0,0.8,0.2,1,0.5S124.3,26.4,124.3,26.8z"/>
			<path class="st0" d="M126,31.2c0-0.9,0.1-1.7,0.4-2.4c0.3-0.7,0.7-1.4,1.3-2c0.5-0.6,1.2-1,1.9-1.3c0.7-0.3,1.6-0.4,2.4-0.4
				c0.5,0,1,0.1,1.6,0.2c0.6,0.1,1.1,0.3,1.5,0.6c0.4,0.3,0.6,0.7,0.6,1.1c0,0.4-0.1,0.7-0.3,1c-0.2,0.3-0.5,0.4-0.8,0.4
				c-0.2,0-0.6-0.1-1.1-0.3c-0.5-0.2-1-0.3-1.4-0.3c-0.7,0-1.3,0.2-1.8,0.5c-0.5,0.3-0.8,0.8-1.1,1.4c-0.2,0.6-0.3,1.2-0.3,1.9
				c0,1.4,0.4,2.4,1.1,3.1c0.6,0.5,1.3,0.8,2.1,0.8c0.5,0,0.8-0.1,1.1-0.2l0.8-0.4c0.2-0.1,0.4-0.1,0.6-0.1c0.4,0,0.7,0.1,0.9,0.4
				c0.2,0.3,0.3,0.6,0.3,0.9c0,0.5-0.3,1-0.9,1.3c-0.8,0.5-1.8,0.7-3,0.7c-0.8,0-1.5-0.1-2.2-0.4c-0.7-0.3-1.3-0.7-1.9-1.2
				C126.7,35.3,126,33.5,126,31.2z"/>
			<path class="st0" d="M142.7,28v8.4c0,0.4-0.1,0.8-0.4,1.1c-0.3,0.3-0.6,0.4-1,0.4c-0.4,0-0.8-0.2-1-0.5c-0.3-0.3-0.4-0.7-0.4-1.1
				V28h-1.7c-0.4,0-0.7-0.1-1-0.3s-0.4-0.5-0.4-0.9c0-0.4,0.1-0.7,0.4-0.9c0.3-0.2,0.6-0.3,1-0.3h6.2c0.4,0,0.7,0.1,1,0.3
				c0.3,0.2,0.4,0.5,0.4,0.9c0,0.4-0.1,0.7-0.4,0.9c-0.3,0.2-0.6,0.3-1,0.3H142.7z"/>
			<path class="st0" d="M146.3,29.1c0-0.8,0.2-1.5,0.6-2.1c0.4-0.6,1-1.1,1.7-1.4c0.7-0.3,1.4-0.5,2.2-0.5c0.5,0,1,0.1,1.5,0.2
				c0.5,0.1,1,0.3,1.4,0.5c0.4,0.3,0.6,0.6,0.6,1c0,0.4-0.1,0.7-0.4,1c-0.2,0.3-0.6,0.4-0.9,0.4c-0.2,0-0.3,0-0.4-0.1L152,28
				c-0.4-0.2-0.9-0.2-1.3-0.2c-0.4,0-0.7,0.1-1,0.3c-0.3,0.2-0.4,0.4-0.4,0.7c0,0.5,0.4,0.9,1.1,1.1l0.8,0.2
				c1.2,0.3,2.1,0.8,2.8,1.3c0.7,0.5,1,1.3,1,2.4c0,1.3-0.4,2.3-1.1,3c-0.4,0.5-0.9,0.8-1.6,1c-0.6,0.2-1.3,0.3-2,0.3
				c-1.3,0-2.3-0.2-3.2-0.6c-0.3-0.2-0.6-0.4-0.8-0.6c-0.2-0.3-0.3-0.6-0.3-0.9c0-0.3,0.1-0.6,0.4-0.9c0.2-0.3,0.5-0.4,0.9-0.4
				c0.3,0,0.5,0,0.7,0.1l1,0.4c0.5,0.2,0.9,0.3,1.4,0.3c0.4,0,0.8-0.1,1.1-0.3c0.3-0.2,0.5-0.5,0.5-0.9c0-0.4-0.2-0.7-0.5-0.9
				c-0.3-0.2-0.5-0.3-0.7-0.4c-0.2-0.1-0.7-0.2-1.2-0.4c-0.8-0.2-1.4-0.5-1.8-0.7c-0.5-0.2-0.8-0.6-1.1-1
				C146.4,30.4,146.3,29.8,146.3,29.1z"/>
		</g>
	</g>
</g>
</svg>
