<?xml version="1.0" encoding="utf-8"?>
<!-- Generator: Adobe Illustrator 21.0.0, SVG Export Plug-In . SVG Version: 6.00 Build 0)  -->
<svg version="1.1" id="Layer_1" xmlns="http://www.w3.org/2000/svg" xmlns:xlink="http://www.w3.org/1999/xlink" x="0px" y="0px"
	 width="180px" height="50px" viewBox="0 0 180 50" style="enable-background:new 0 0 180 50;" xml:space="preserve">
<style type="text/css">
	.st0{fill:#247FFB;}
</style>
<g id="Page-1">
	<g id="Logo-example-5">
		<g id="Group-6">
			<path id="Fill-1" class="st0" d="M43.2,49.6c-1.8,0-3.5-0.7-4.8-2s-2-3-2-4.8s0.7-3.5,2-4.7c1.3-1.3,3-2,4.8-2s3.5,0.7,4.8,2
				c2.6,2.6,2.6,6.9,0,9.5C46.7,48.9,45,49.6,43.2,49.6"/>
			<path id="Fill-3" class="st0" d="M6.7,13.8c-1.8,0-3.5-0.7-4.8-2s-2-3-2-4.8s0.7-3.5,2-4.7c1.3-1.3,3-2,4.8-2s3.5,0.7,4.7,2
				c1.3,1.3,2,3,2,4.8s-0.7,3.5-2,4.8C10.2,13.1,8.5,13.8,6.7,13.8"/>
			<path id="Fill-5" class="st0" d="M42.9,13.6c-1.8,0-3.5-0.7-4.8-2c-2.6-2.6-2.6-6.9,0-9.5c1.3-1.3,3-2,4.8-2s3.5,0.7,4.8,2
				c2.6,2.6,2.6,6.9,0,9.5C46.4,12.9,44.7,13.6,42.9,13.6"/>
			<path id="Fill-7" class="st0" d="M6.9,49.6c-1.8,0-3.5-0.7-4.8-2s-2-3-2-4.8s0.7-3.5,2-4.8c0.3-0.3,0.6-0.5,0.9-0.8
				c0.1-0.1,0.2-0.1,0.3-0.2c0.2-0.1,0.5-0.3,0.7-0.4c0.1-0.1,0.3-0.1,0.4-0.2c0.2-0.1,0.5-0.2,0.8-0.2c0.1,0,0.1,0,0.2,0h0.1
				L7,36.1c0.2,0,0.4,0,0.6,0.1h0.1c0.1,0,0.1,0,0.2,0H8h0.1h0.1c0.1,0,0.2,0,0.3,0c2.6,0,5.1-1.1,7-3c1.9-1.9,2.9-4.5,2.8-7v-0.1
				V26c0-0.1,0-0.1,0-0.2s0-0.2,0-0.3v-0.2c0-0.1,0-0.3,0-0.4l0.1-1.5v-0.1v-0.1c0.1-0.3,0.1-0.6,0.3-0.8c0.1-0.2,0.1-0.3,0.2-0.4
				c0.1-0.3,0.2-0.5,0.4-0.7c0.1-0.1,0.1-0.2,0.2-0.3c0.3-0.4,0.5-0.7,0.8-1c1.3-1.3,3-2,4.8-2s3.5,0.7,4.8,2c2.6,2.6,2.6,6.9,0,9.5
				c-0.3,0.3-0.6,0.5-0.9,0.8c-0.1,0.1-0.2,0.1-0.3,0.2c-0.2,0.1-0.5,0.3-0.7,0.4c-0.1,0.1-0.3,0.1-0.4,0.2
				c-0.3,0.1-0.5,0.2-0.8,0.2h-0.2h-0.1L25,31.4c-0.2,0-0.4,0-0.6-0.1h-0.1c0,0-0.1,0-0.2,0H24h-0.1h-0.1c-0.1,0-0.2,0-0.3,0
				c-2.6,0-5.1,1.1-7,3c-1.9,1.9-2.9,4.5-2.8,7v0.1v0.1c0,0.1,0,0.1,0,0.2c0,0.1,0,0.2,0,0.3s0,0.1,0,0.2c0,0.1,0,0.2,0,0.3l0,0
				l-0.1,1.4l-0.1,0.2c-0.1,0.3-0.2,0.6-0.2,0.8c-0.1,0.1-0.1,0.3-0.2,0.4c-0.1,0.3-0.2,0.5-0.4,0.7c-0.1,0.1-0.1,0.2-0.2,0.3
				c-0.2,0.4-0.5,0.7-0.8,0.9C10.4,48.9,8.7,49.6,6.9,49.6L6.9,49.6z"/>
			<path id="Fill-9" class="st0" d="M25,49.6c-1.8,0-3.5-0.7-4.8-2s-2-3-2-4.8s0.7-3.5,2-4.7c0.3-0.3,0.6-0.5,1-0.8
				c0.1-0.1,0.2-0.1,0.3-0.2c0.2-0.1,0.5-0.3,0.7-0.4c0.1-0.1,0.3-0.1,0.4-0.2c0.2-0.1,0.5-0.2,0.8-0.2c0,0,0.2-0.1,0.3-0.1l1.5-0.1
				c0.2,0,0.4,0,0.6,0.1h0.1c0.1,0,0.1,0,0.2,0c0,0,0,0,0.1,0l0,0h0.1c0.1,0,0.2,0,0.3,0c2.6,0,5.1-1.1,7-3c1.9-1.9,2.9-4.5,2.8-7
				v-0.3l0,0l0,0c0-0.1,0-0.1,0-0.2v-0.2c0-0.1,0-0.2,0-0.4l0.1-1.5c0,0,0.1-0.2,0.1-0.3c0.1-0.3,0.2-0.6,0.2-0.8
				c0-0.1,0.1-0.3,0.2-0.4c0.1-0.2,0.2-0.5,0.4-0.7l0,0c0.1-0.1,0.1-0.2,0.2-0.3c0.3-0.4,0.5-0.7,0.8-1c1.3-1.3,3-2,4.8-2
				s3.5,0.7,4.8,2c2.6,2.6,2.6,6.9,0,9.5c-0.3,0.3-0.6,0.5-1,0.8c-0.1,0.1-0.1,0.1-0.2,0.1l-0.1,0.1c-0.2,0.1-0.5,0.3-0.7,0.4
				c-0.1,0.1-0.3,0.1-0.4,0.2c-0.2,0.1-0.5,0.2-0.8,0.2c-0.1,0-0.1,0-0.2,0h-0.1L43,31.5c-0.2,0-0.5,0-0.7-0.1c-0.1,0-0.1,0-0.2,0
				c0,0,0,0-0.1,0h-0.1c-0.1,0-0.2,0-0.3,0c-2.6,0-5.1,1.1-7,3s-2.9,4.5-2.8,7v0.1v0.1c0,0.1,0,0.2,0,0.2c0,0.1,0,0.2,0,0.2
				c0,0.1,0,0.1,0,0.2c0,0.1,0,0.2,0,0.3L31.7,44l-0.1,0.2c-0.1,0.3-0.2,0.6-0.2,0.8c0,0.1-0.1,0.2-0.2,0.4l0,0
				c-0.1,0.2-0.2,0.5-0.4,0.7c-0.1,0.1-0.1,0.2-0.2,0.3c-0.3,0.4-0.5,0.7-0.8,1C28.5,48.9,26.8,49.6,25,49.6"/>
			<path id="Fill-11" class="st0" d="M6.9,31.4c-1.8,0-3.5-0.7-4.8-2s-2-3-2-4.8c0-1.8,0.7-3.5,2-4.7c0.3-0.3,0.6-0.5,1-0.8
				C3.2,19,3.3,19,3.4,18.9c0.2-0.1,0.5-0.3,0.7-0.4c0.1-0.1,0.3-0.1,0.4-0.2c0.2-0.1,0.5-0.2,0.8-0.2h0.2h0.1L7.1,18
				c0.2,0,0.4,0,0.6,0.1l0,0c0.1,0,0.1,0,0.2,0c0,0,0,0,0.1,0h0.1h0.1c0.1,0,0.2,0,0.3,0c2.6,0,5.1-1.1,7-3s2.9-4.5,2.8-7V8V7.9
				c0-0.1,0-0.2,0-0.2c0-0.1,0-0.1,0-0.2V7.3c0-0.1,0-0.2,0-0.4l0.1-1.4l0,0l0,0l0.1-0.2c0.1-0.4,0.2-0.6,0.2-0.9
				c0-0.1,0.1-0.3,0.2-0.4c0.1-0.2,0.2-0.5,0.4-0.7l0,0c0.1-0.1,0.1-0.2,0.2-0.3c0.3-0.4,0.5-0.7,0.8-0.9c1.3-1.3,3-2,4.8-2
				c1.8,0,3.5,0.7,4.8,2c2.6,2.6,2.6,6.9,0,9.5c-0.3,0.3-0.6,0.5-0.9,0.8c-0.1,0.1-0.2,0.1-0.3,0.2l0,0c-0.2,0.1-0.5,0.3-0.7,0.4
				c-0.1,0.1-0.3,0.1-0.4,0.2c-0.3,0.1-0.5,0.2-0.8,0.2c-0.1,0-0.1,0-0.2,0h-0.1L25,13.5c-0.2,0-0.4,0-0.6-0.1h-0.1
				c-0.1,0-0.1,0-0.2,0H24l0,0h-0.1c-0.1,0-0.2,0-0.3,0c-2.6,0-5.1,1.1-7,3s-2.9,4.5-2.8,7v0.1v0.1c0,0.1,0,0.2,0,0.2
				c0,0.1,0,0.2,0,0.2c0,0.1,0,0.1,0,0.2s0,0.2,0,0.3L13.5,26v0.1v0.1c-0.1,0.3-0.2,0.6-0.2,0.8c0,0.1-0.1,0.3-0.2,0.4
				c-0.1,0.2-0.2,0.5-0.4,0.7c-0.1,0.1-0.1,0.2-0.2,0.3c-0.3,0.4-0.5,0.7-0.8,1C10.4,30.7,8.7,31.4,6.9,31.4"/>
		</g>
		<g>
			<g>
				<path class="st0" d="M68.3,29.1c-0.2,0-0.4,0-0.7,0.2l-0.9,0.4c-0.3,0.1-0.7,0.2-1.1,0.2c-0.8,0-1.5-0.3-2.1-0.8
					c-0.7-0.7-1.1-1.7-1.1-3.2c0-0.7,0.1-1.4,0.3-2c0.2-0.6,0.6-1,1-1.4c0.5-0.3,1.1-0.5,1.8-0.5c0.4,0,0.9,0.1,1.5,0.3
					c0.5,0.2,0.9,0.3,1.2,0.3c0.4,0,0.8-0.2,1-0.5c0.2-0.3,0.3-0.7,0.3-1.1c0-0.5-0.2-1-0.7-1.3c-0.5-0.3-1-0.5-1.6-0.7
					c-0.6-0.1-1.2-0.2-1.7-0.2c-0.9,0-1.8,0.2-2.7,0.5c-0.8,0.3-1.5,0.8-2.1,1.4c-0.6,0.6-1.1,1.3-1.4,2.1c-0.3,0.8-0.5,1.7-0.5,2.6
					c0,2.5,0.7,4.4,2,5.7c0.6,0.6,1.3,1,2.1,1.3c0.8,0.3,1.6,0.4,2.4,0.4c1.3,0,2.4-0.3,3.3-0.8c0.7-0.4,1-0.9,1-1.5
					c0-0.4-0.1-0.8-0.4-1.1C69.2,29.3,68.8,29.1,68.3,29.1z"/>
				<path class="st0" d="M77.5,29.7h-2.9v-8.7c0-0.5-0.1-0.9-0.4-1.3c-0.3-0.4-0.7-0.5-1.2-0.5c-0.5,0-0.9,0.2-1.2,0.5
					c-0.3,0.4-0.4,0.8-0.4,1.3v9.7c0,0.6,0.2,1.1,0.6,1.5c0.4,0.4,0.9,0.5,1.5,0.5h4.2c0.5,0,0.9-0.1,1.2-0.4
					c0.3-0.3,0.5-0.6,0.5-1.1c0-0.5-0.2-0.9-0.5-1.1C78.4,29.8,78,29.7,77.5,29.7z"/>
				<path class="st0" d="M86.2,22.3c0.5,0,0.9-0.1,1.2-0.4c0.3-0.3,0.5-0.6,0.5-1.1c0-0.5-0.2-0.9-0.5-1.1c-0.3-0.3-0.7-0.4-1.2-0.4
					h-4.3c-0.6,0-1.1,0.2-1.5,0.5c-0.4,0.4-0.5,0.8-0.5,1.5v9.4c0,0.6,0.2,1.1,0.5,1.5c0.4,0.4,0.8,0.5,1.5,0.5h4.3
					c0.5,0,0.9-0.1,1.2-0.4c0.3-0.3,0.5-0.6,0.5-1.1c0-0.5-0.2-0.9-0.5-1.1c-0.3-0.3-0.7-0.4-1.2-0.4h-2.9v-2.2h2.6
					c0.5,0,0.8-0.1,1.2-0.4c0.3-0.3,0.5-0.6,0.5-1.1c0-0.5-0.2-0.9-0.5-1.1c-0.3-0.3-0.7-0.4-1.2-0.4h-2.6v-2.1H86.2z"/>
				<path class="st0" d="M97.1,20.8c-0.2-0.5-0.5-1-0.9-1.3c-0.4-0.3-0.9-0.5-1.5-0.5c-0.6,0-1,0.2-1.5,0.5
					c-0.4,0.3-0.7,0.8-0.9,1.3l-3.5,9.7c-0.1,0.2-0.1,0.6-0.1,1c0.1,0.4,0.3,0.8,0.7,1c0.4,0.2,0.8,0.3,1.2,0.3
					c0.7,0,1.2-0.6,1.5-1.7l0.3-1h4.7l0.4,1.3c0.1,0.4,0.3,0.7,0.5,0.9c0.3,0.3,0.6,0.4,0.9,0.4c0.5,0,0.9-0.1,1.2-0.3
					c0.4-0.2,0.6-0.6,0.6-1c0-0.4,0-0.8-0.1-1L97.1,20.8z M96.1,27.2h-2.7l1.3-4.2L96.1,27.2z"/>
				<path class="st0" d="M113.4,19.6c-0.3-0.4-0.7-0.5-1.2-0.5c-0.5,0-0.9,0.2-1.2,0.5c-0.3,0.4-0.4,0.8-0.4,1.3v5.8l-5.4-6.9
					c-0.4-0.5-0.8-0.7-1.4-0.7c-0.5,0-0.9,0.2-1.2,0.5c-0.3,0.3-0.5,0.7-0.5,1.2V31c0,0.5,0.2,0.9,0.4,1.3c0.3,0.4,0.7,0.5,1.2,0.5
					c0.5,0,0.9-0.2,1.2-0.5c0.3-0.3,0.4-0.8,0.4-1.3v-5.9l5.6,7.1c0.3,0.4,0.8,0.6,1.3,0.6c0.4,0,0.8-0.2,1.1-0.5
					c0.3-0.3,0.4-0.8,0.4-1.4v-10C113.8,20.4,113.6,20,113.4,19.6z"/>
			</g>
			<path class="st0" d="M125.5,30.6c0.3-0.6,0.5-1.2,0.5-2c0-0.9-0.3-1.7-1-2.2c-0.4-0.3-0.9-0.6-1.6-0.8l-0.7-0.2l0.6-0.4
				c0.5-0.3,0.9-0.7,1.1-1.1c0.2-0.4,0.3-0.9,0.3-1.5c0-0.4-0.1-0.8-0.3-1.2c-0.2-0.4-0.4-0.7-0.8-1c-0.6-0.5-1.5-0.8-2.6-0.8h-3.1
				c-0.5,0-0.9,0.1-1.2,0.4c-0.3,0.3-0.4,0.7-0.4,1.2v9.8c0,0.5,0.1,0.9,0.4,1.2c0.3,0.3,0.7,0.4,1.2,0.4h4.1c0.7,0,1.4-0.2,2-0.5
				C124.7,31.7,125.2,31.2,125.5,30.6z M119,21.7h1.7c0.4,0,0.9,0.1,1.2,0.4c0.4,0.3,0.6,0.6,0.6,1.1c0,0.5-0.2,0.8-0.5,1.2
				c-0.3,0.3-0.7,0.5-1.2,0.5H119V21.7z M123,29.8c-0.3,0.4-0.8,0.6-1.5,0.6H119v-3.5h2.4c1.6,0,2,0.9,2,1.7
				C123.4,29.1,123.3,29.5,123,29.8z"/>
			<path class="st0" d="M138,31.2c0-0.1-0.2-0.4-0.6-0.9l-3-3.3l0.5-0.1c0.9-0.2,1.6-0.5,2-0.9c0.6-0.6,1-1.5,1-2.6
				c0-0.5-0.1-1-0.3-1.5c-0.2-0.5-0.5-0.9-1-1.2c-0.8-0.7-1.9-1-3.2-1h-3.1c-0.5,0-0.9,0.1-1.2,0.4c-0.3,0.3-0.4,0.7-0.4,1.2v10.1
				c0,0.4,0.1,0.8,0.4,1c0.2,0.3,0.5,0.4,0.9,0.4c0.4,0,0.7-0.1,0.9-0.4c0.2-0.3,0.3-0.6,0.3-1v-4.9l4.6,5.7
				c0.3,0.4,0.7,0.6,1.3,0.6c0.3,0,0.5-0.1,0.7-0.3c0.2-0.2,0.3-0.5,0.3-0.8C138,31.5,138,31.4,138,31.2z M131.2,25.4v-3.8h2.2
				c0.5,0,1,0.2,1.4,0.5c0.4,0.4,0.6,0.8,0.6,1.4c0,0.6-0.2,1-0.6,1.4c-0.4,0.3-0.9,0.5-1.4,0.5H131.2z"/>
			<path class="st0" d="M151.6,31.7c0-0.3,0-0.6-0.1-0.8l-3.7-10.1c-0.2-0.5-0.4-0.9-0.8-1.1c-0.7-0.6-1.7-0.6-2.4,0
				c-0.4,0.3-0.6,0.7-0.8,1.1l-3.7,10.1c-0.1,0.2-0.1,0.5-0.1,0.9c0,0.3,0.2,0.5,0.5,0.7c0.3,0.2,0.6,0.3,1,0.3
				c0.5,0,0.8-0.5,1.1-1.4l0.4-1.4h5.7l0.5,1.7c0.1,0.3,0.2,0.6,0.4,0.8c0.2,0.2,0.4,0.3,0.6,0.3c0.4,0,0.7-0.1,1-0.3
				C151.4,32.3,151.6,32,151.6,31.7z M143.8,27.7l2.1-6.5l2.1,6.5H143.8z"/>
			<path class="st0" d="M165.1,20.8c0-0.4-0.1-0.8-0.3-1c-0.2-0.3-0.5-0.4-0.9-0.4c-0.4,0-0.7,0.1-0.9,0.4c-0.2,0.3-0.3,0.6-0.3,1
				v7.4l-6.5-8.2c-0.3-0.4-0.6-0.6-1.1-0.6c-0.4,0-0.6,0.1-0.9,0.4c-0.2,0.3-0.3,0.6-0.3,0.9v10.6c0,0.4,0.1,0.8,0.4,1
				c0.2,0.3,0.5,0.4,0.9,0.4c0.4,0,0.7-0.1,0.9-0.4c0.2-0.3,0.3-0.6,0.3-1v-7.6l6.7,8.5c0.2,0.3,0.6,0.5,1,0.5
				c0.3,0,0.6-0.1,0.8-0.4c0.2-0.2,0.3-0.6,0.3-1.1V20.8z"/>
			<path class="st0" d="M178.6,29.4c0.5-1,0.7-2.1,0.7-3.3c0-1.1-0.2-2.1-0.6-3c-0.4-0.9-1-1.7-1.8-2.3c-1.1-0.8-2.5-1.2-4.1-1.2
				h-2.9c-0.5,0-0.9,0.1-1.2,0.4c-0.3,0.3-0.4,0.7-0.4,1.2v9.7c0,0.5,0.1,0.9,0.4,1.2c0.3,0.3,0.6,0.4,1.1,0.4l3.4,0
				c1.2,0,2.3-0.3,3.2-0.8C177.4,31.1,178.1,30.3,178.6,29.4z M175.4,29.4c-0.6,0.7-1.6,1-2.8,1h-1.8v-8.7h1.5c1.3,0,2.3,0.3,3,0.9
				c0.9,0.8,1.3,1.9,1.3,3.5C176.6,27.5,176.2,28.6,175.4,29.4z"/>
		</g>
	</g>
</g>
</svg>
