<?xml version="1.0" encoding="utf-8"?>
<!-- Generator: Adobe Illustrator 21.0.0, SVG Export Plug-In . SVG Version: 6.00 Build 0)  -->
<svg version="1.1" id="Layer_1" xmlns="http://www.w3.org/2000/svg" xmlns:xlink="http://www.w3.org/1999/xlink" x="0px" y="0px"
	 width="139px" height="47px" viewBox="0 0 139 47" style="enable-background:new 0 0 139 47;" xml:space="preserve">
<style type="text/css">
	.st0{fill:#247FFB;}
</style>
<g id="Page-1">
	<g id="Logo-example-4">
		<path id="Mono" class="st0" d="M26.8,30l-0.1-15.2l-7.4,12.4h-3.6l-7.3-12V30H0.9V1.3h6.7l10.1,16.6l9.8-16.6h6.7V30H26.8z
			 M54.5,30.6c-3,0-5.8-0.6-8.2-1.9s-4.3-3.1-5.7-5.3s-2.1-4.8-2.1-7.7s0.7-5.4,2.1-7.7s3.3-4,5.7-5.3s5.1-1.9,8.2-1.9
			s5.8,0.6,8.2,1.9c2.4,1.2,4.3,3,5.6,5.3s2.1,4.8,2.1,7.7s-0.7,5.4-2.1,7.7s-3.3,4-5.7,5.3C60.2,29.9,57.5,30.6,54.5,30.6z
			 M54.5,23.9c1.4,0,2.8-0.3,3.9-1c1.2-0.7,2.1-1.6,2.8-2.9s1-2.7,1-4.3s-0.3-3-1-4.3s-1.6-2.2-2.8-2.9s-2.5-1-3.9-1s-2.8,0.3-3.9,1
			c-1.2,0.7-2.1,1.6-2.8,2.9c-0.7,1.2-1,2.7-1,4.3s0.3,3,1,4.3c0.7,1.2,1.6,2.2,2.8,2.9C51.7,23.5,53,23.9,54.5,23.9z M102,1.3V30
			h-6.7L82.6,14.7V30h-8V1.3h6.7L94,16.6V1.3H102z M122.2,30.6c-3,0-5.8-0.6-8.2-1.9c-2.4-1.3-4.3-3.1-5.7-5.3s-2.1-4.8-2.1-7.7
			s0.7-5.4,2.1-7.7s3.3-4,5.7-5.3s5.1-1.9,8.2-1.9c3,0,5.8,0.6,8.2,1.9s4.3,3.1,5.7,5.3s2.1,4.8,2.1,7.7s-0.7,5.4-2.1,7.7
			s-3.3,4-5.7,5.3C127.9,29.9,125.2,30.6,122.2,30.6z M122.2,23.9c1.4,0,2.8-0.3,3.9-1c1.2-0.7,2.1-1.6,2.8-2.9c0.7-1.2,1-2.7,1-4.3
			s-0.3-3-1-4.3c-0.7-1.2-1.6-2.2-2.8-2.9c-1.2-0.7-2.5-1-3.9-1s-2.8,0.3-3.9,1c-1.2,0.7-2.1,1.6-2.8,2.9c-0.7,1.2-1,2.7-1,4.3
			s0.3,3,1,4.3c0.7,1.2,1.6,2.2,2.8,2.9C119.4,23.5,120.7,23.9,122.2,23.9z"/>
		<path id="Brand-Tagline" class="st0" d="M7.2,41.6C7.6,41.8,8,42,8.3,42.4s0.4,0.8,0.4,1.3c0,0.7-0.3,1.3-0.9,1.7
			C7.3,45.8,6.4,46,5.3,46H1v-8.4h4.1c1,0,1.8,0.2,2.4,0.6s0.8,0.9,0.8,1.6c0,0.4-0.1,0.8-0.3,1.1C7.8,41.2,7.5,41.4,7.2,41.6z
			 M2.9,39.1v2h1.9C5.3,41,5.7,41,6,40.8c0.2-0.2,0.4-0.4,0.4-0.7S6.2,39.5,6,39.3s-0.6-0.2-1.1-0.2H2.9z M5.2,44.5
			c0.5,0,0.9-0.1,1.2-0.3c0.3-0.2,0.4-0.4,0.4-0.8c0-0.7-0.5-1-1.5-1H2.9v2.1H5.2z M18.1,46l-1.6-2.3h-1.8V46h-1.9v-8.4h3.6
			c0.7,0,1.4,0.1,1.9,0.4s1,0.6,1.3,1.1s0.4,1,0.4,1.6s-0.1,1.2-0.4,1.6c-0.3,0.5-0.7,0.8-1.3,1l1.9,2.7C20.2,46,18.1,46,18.1,46z
			 M18.1,40.6c0-0.5-0.2-0.8-0.5-1.1s-0.7-0.4-1.3-0.4h-1.6V42h1.6c0.6,0,1-0.1,1.3-0.4S18.1,41.1,18.1,40.6z M29.7,44.2h-3.9
			L25.1,46h-2l3.7-8.4h1.9l3.8,8.4h-2L29.7,44.2z M29.1,42.7l-1.3-3.2l-1.3,3.2H29.1z M43.7,37.6V46h-1.6l-4.2-5.1V46H36v-8.4h1.6
			l4.2,5.1v-5.1H43.7z M48.3,37.6h3.8c0.9,0,1.7,0.2,2.4,0.5s1.2,0.8,1.6,1.5c0.4,0.6,0.6,1.4,0.6,2.2s-0.2,1.6-0.6,2.2
			c-0.4,0.6-0.9,1.1-1.6,1.5C53.8,45.8,53,46,52.1,46h-3.8V37.6z M52,44.4c0.8,0,1.5-0.2,2-0.7s0.8-1.1,0.8-1.9s-0.2-1.4-0.8-1.9
			s-1.2-0.7-2-0.7h-1.8v5.2C50.2,44.4,52,44.4,52,44.4z M68.5,39.2h-2.7v-1.6h7.3v1.6h-2.7V46h-1.9C68.5,46,68.5,39.2,68.5,39.2z
			 M81.9,44.2H78L77.3,46h-2l3.7-8.4h1.9l3.8,8.4h-2L81.9,44.2z M81.3,42.7L80,39.5l-1.3,3.2H81.3z M93.7,41.7h1.8v3.4
			c-0.5,0.3-1,0.6-1.6,0.8s-1.2,0.3-1.8,0.3c-0.9,0-1.7-0.2-2.4-0.6c-0.7-0.4-1.2-0.9-1.6-1.5c-0.4-0.7-0.6-1.4-0.6-2.2
			s0.2-1.6,0.6-2.2s0.9-1.2,1.7-1.5s1.5-0.6,2.4-0.6c0.7,0,1.4,0.1,2,0.4c0.6,0.2,1.1,0.6,1.5,1.1l-1.2,1.2
			c-0.6-0.6-1.3-0.9-2.2-0.9c-0.5,0-1,0.1-1.4,0.3s-0.7,0.5-1,0.9s-0.3,0.9-0.3,1.4s0.1,1,0.3,1.4c0.2,0.4,0.6,0.7,1,1
			c0.4,0.2,0.9,0.3,1.4,0.3c0.6,0,1.1-0.1,1.5-0.4v-2.6H93.7z M99.9,37.6h1.9v6.8h4.2V46h-6.2L99.9,37.6L99.9,37.6z M109.8,37.6h1.9
			V46h-1.9V37.6z M124,37.6V46h-1.6l-4.2-5.1V46h-1.9v-8.4h1.6l4.2,5.1v-5.1H124z M135.1,44.4V46h-6.5v-8.4h6.3v1.6h-4.4V41h3.9v1.5
			h-3.9v1.9H135.1z"/>
	</g>
</g>
<circle class="st0" cx="59.3" cy="18.2" r="1.1"/>
<circle class="st0" cx="58.6" cy="15.4" r="0.4"/>
<circle class="st0" cx="118.5" cy="20.7" r="0.9"/>
<circle class="st0" cx="119.1" cy="18.9" r="0.6"/>
<circle class="st0" cx="116.9" cy="16.3" r="0.4"/>
<circle class="st0" cx="119.9" cy="23" r="0.4"/>
<circle class="st0" cx="56.5" cy="21" r="1.7"/>
</svg>
