<?xml version="1.0" encoding="utf-8"?>
<!-- Generator: Adobe Illustrator 21.0.0, SVG Export Plug-In . SVG Version: 6.00 Build 0)  -->
<svg version="1.1" id="Layer_1" xmlns="http://www.w3.org/2000/svg" xmlns:xlink="http://www.w3.org/1999/xlink" x="0px" y="0px"
	 width="216px" height="50px" viewBox="0 0 216 50" style="enable-background:new 0 0 216 50;" xml:space="preserve">
<style type="text/css">
	.st0{fill:#247FFB;}
</style>
<g id="Page-1">
	<g id="Logo-example-8">
		<path id="Brand-Tagline" class="st0" d="M65.2,45c-0.1,0-0.1,0-0.2-0.1s-0.1-0.1-0.1-0.2v-7.8c0-0.1,0-0.2,0.1-0.2
			c0.1-0.1,0.1-0.1,0.2-0.1h3.5c0.9,0,1.6,0.2,2.1,0.6s0.7,1,0.7,1.7c0,0.4-0.1,0.8-0.3,1.1c-0.2,0.3-0.4,0.5-0.7,0.6
			c0.3,0.2,0.6,0.4,0.9,0.7c0.2,0.3,0.3,0.7,0.3,1.2c0,0.7-0.3,1.3-0.8,1.8S69.7,45,68.8,45H65.2z M68.5,40c0.4,0,0.7-0.1,0.9-0.3
			c0.2-0.2,0.3-0.5,0.3-0.8s-0.1-0.6-0.3-0.8c-0.2-0.2-0.5-0.3-0.9-0.3h-1.9V40L68.5,40z M68.6,43.7c0.4,0,0.7-0.1,1-0.3
			c0.2-0.2,0.3-0.5,0.3-0.9s-0.1-0.6-0.4-0.9c-0.2-0.2-0.6-0.3-1-0.3h-2v2.4H68.6z M74.5,45c-0.1,0-0.1,0-0.2-0.1s-0.1-0.1-0.1-0.2
			v-7.8c0-0.1,0-0.2,0.1-0.2c0.1-0.1,0.1-0.1,0.2-0.1h3.1c1,0,1.8,0.2,2.3,0.7c0.6,0.5,0.8,1.1,0.8,1.9c0,0.6-0.1,1.1-0.4,1.5
			s-0.7,0.7-1.2,0.9l1.7,3.1v0.1c0,0.1,0,0.1-0.1,0.2s0,0,0,0h-1.1c-0.1,0-0.2,0-0.3-0.1c-0.1-0.1-0.1-0.1-0.2-0.2l-1.5-2.8H76v2.9
			c0,0.1,0,0.1-0.1,0.2s-0.2,0-0.3,0H74.5z M77.5,40.5c0.5,0,0.8-0.1,1.1-0.3s0.4-0.5,0.4-0.9s-0.1-0.7-0.4-0.9s-0.6-0.3-1.1-0.3
			h-1.7v2.5L77.5,40.5z M82.8,45c-0.1,0-0.1,0-0.2-0.1c0,0-0.1-0.1-0.1-0.2v-0.1l2.9-7.7c0.1-0.2,0.2-0.3,0.4-0.3h1.3
			c0.2,0,0.4,0.1,0.4,0.3l2.9,7.7v0.1c0,0.1,0,0.1-0.1,0.2c-0.1,0-0.1,0.1-0.2,0.1H89c-0.2,0-0.3-0.1-0.3-0.2l-0.6-1.5h-3.6
			l-0.6,1.5c0.2,0.1,0.1,0.2-0.1,0.2H82.8z M85.1,41.9h2.7l-1.4-3.7L85.1,41.9z M92.9,45c-0.1,0-0.1,0-0.2-0.1s-0.1-0.1-0.1-0.2
			v-7.8c0-0.1,0-0.2,0.1-0.2c0.1-0.1,0.1-0.1,0.2-0.1h0.9c0.2,0,0.3,0.1,0.3,0.2l3.4,5.3v-5.2c0-0.1,0-0.2,0.1-0.2s0.1-0.1,0.2-0.1
			h1c0.1,0,0.2,0,0.2,0.1c0.1,0.1,0.1,0.1,0.1,0.2v7.8c0,0.1,0,0.2-0.1,0.2c0.1,0.1,0,0.1-0.1,0.1H98c-0.2,0-0.3-0.1-0.4-0.2
			l-3.4-5.2v5.1c0,0.1,0,0.1-0.1,0.2c0,0.1-0.1,0.1-0.2,0.1H92.9z M102.4,45c-0.1,0-0.1,0-0.2-0.1s-0.1-0.1-0.1-0.2v-7.8
			c0-0.1,0-0.2,0.1-0.2c0.1-0.1,0.1-0.1,0.2-0.1h2.9c2.4,0,3.6,1.1,3.6,3.3c0,0.5,0,0.8,0,0.9c0,0.2,0,0.5,0,0.9
			c0,1.1-0.3,1.9-0.9,2.5c-0.6,0.5-1.5,0.8-2.6,0.8L102.4,45z M105.3,43.6c0.7,0,1.1-0.1,1.4-0.4c0.3-0.3,0.5-0.8,0.5-1.5
			c0-0.5,0-0.8,0-0.9c0-0.1,0-0.4,0-0.9c0-0.7-0.2-1.1-0.5-1.4c-0.3-0.3-0.8-0.5-1.5-0.5h-1.5v5.6L105.3,43.6z M117.1,45
			c-0.1,0-0.1,0-0.2-0.1s-0.1-0.1-0.1-0.2v-6.6h-2.2c-0.1,0-0.1,0-0.2-0.1s-0.1-0.1-0.1-0.2v-0.9c0-0.1,0-0.2,0.1-0.2
			c0.1-0.1,0.1-0.1,0.2-0.1h6.1c0.1,0,0.2,0,0.2,0.1c0.1,0.1,0.1,0.1,0.1,0.2v0.9c0,0.1,0,0.2-0.1,0.2c-0.1,0.1-0.1,0.1-0.2,0.1
			h-2.2v6.6c0,0.1,0,0.1-0.1,0.2c-0.1,0.1-0.1,0.1-0.2,0.1H117.1z M121.8,45c-0.1,0-0.1,0-0.2-0.1c0,0-0.1-0.1-0.1-0.2v-0.1l2.9-7.7
			c0.1-0.2,0.2-0.3,0.4-0.3h1.3c0.2,0,0.4,0.1,0.4,0.3l2.9,7.7v0.1c0,0.1,0,0.1-0.1,0.2c-0.1,0-0.1,0.1-0.2,0.1H128
			c-0.2,0-0.3-0.1-0.3-0.2l-0.6-1.5h-3.6l-0.6,1.5c-0.1,0.2-0.2,0.2-0.3,0.2H121.8z M124.2,41.9h2.7l-1.4-3.7L124.2,41.9z
			 M134.8,45.1c-1.1,0-2-0.3-2.6-0.9c-0.6-0.6-0.9-1.4-1-2.4c0-0.2,0-0.6,0-1.1s0-0.9,0-1.1c0-1,0.4-1.8,1-2.3
			c0.6-0.6,1.5-0.8,2.6-0.8c0.7,0,1.4,0.1,1.9,0.4s0.9,0.6,1.2,0.9c0.3,0.4,0.4,0.7,0.4,1.1c0,0.1,0,0.1-0.1,0.2
			c0,0-0.1,0.1-0.2,0.1h-1.3c-0.1,0-0.1,0-0.2,0c0,0-0.1-0.1-0.1-0.2c-0.1-0.3-0.3-0.5-0.6-0.8c-0.3-0.2-0.7-0.3-1.1-0.3
			c-0.6,0-1,0.2-1.3,0.5s-0.5,0.8-0.5,1.4c0,0.2,0,0.6,0,1.1s0,0.8,0,1.1c0,0.6,0.2,1.1,0.5,1.4c0.3,0.3,0.8,0.5,1.3,0.5
			c0.6,0,1-0.2,1.4-0.5c0.3-0.3,0.5-0.8,0.5-1.4v-0.4h-1.5c-0.1,0-0.1,0-0.2-0.1c-0.1-0.1-0.1-0.1-0.1-0.2v-0.7c0-0.1,0-0.1,0.1-0.2
			c0.1-0.1,0.1-0.1,0.2-0.1h2.9c0.1,0,0.2,0,0.2,0.1c0.1,0.1,0.1,0.1,0.1,0.2v1.3c0,0.7-0.1,1.2-0.4,1.7c-0.3,0.5-0.7,0.9-1.3,1.1
			C136.2,45,135.5,45.1,134.8,45.1z M141.2,45c-0.1,0-0.1,0-0.2-0.1c-0.1-0.1-0.1-0.1-0.1-0.2v-7.8c0-0.1,0-0.2,0.1-0.2
			c0.1-0.1,0.1-0.1,0.2-0.1h1.1c0.1,0,0.2,0,0.2,0.1c0.1,0.1,0.1,0.1,0.1,0.2v6.7h3.8c0.1,0,0.2,0,0.2,0.1c0.1,0.1,0.1,0.1,0.1,0.2
			v0.9c0,0.1,0,0.1-0.1,0.2c-0.1,0.1-0.1,0.1-0.2,0.1L141.2,45z M149.2,45c-0.1,0-0.1,0-0.2-0.1c-0.1-0.1-0.1-0.1-0.1-0.2v-7.8
			c0-0.1,0-0.2,0.1-0.2c0.1-0.1,0.1-0.1,0.2-0.1h1.2c0.1,0,0.2,0,0.2,0.1c0.1,0.1,0.1,0.1,0.1,0.2v7.8c0,0.1,0,0.1-0.1,0.2
			c-0.1,0.1-0.1,0.1-0.2,0.1H149.2z M153.8,45c-0.1,0-0.1,0-0.2-0.1c-0.1-0.1-0.1-0.1-0.1-0.2v-7.8c0-0.1,0-0.2,0.1-0.2
			c0.1-0.1,0.1-0.1,0.2-0.1h0.9c0.2,0,0.3,0.1,0.3,0.2l3.4,5.3v-5.2c0-0.1,0-0.2,0.1-0.2c0.1-0.1,0.1-0.1,0.2-0.1h1
			c0.1,0,0.2,0,0.2,0.1c0.1,0.1,0.1,0.1,0.1,0.2v7.8c0,0.1,0,0.2-0.1,0.2c-0.1,0.1-0.1,0.1-0.2,0.1h-0.9c-0.2,0-0.3-0.1-0.4-0.2
			l-3.4-5.2v5.1c0,0.1,0,0.1-0.1,0.2c-0.1,0.1-0.1,0.1-0.2,0.1L153.8,45z M163.3,45c-0.1,0-0.1,0-0.2-0.1c-0.1-0.1-0.1-0.1-0.1-0.2
			v-7.8c0-0.1,0-0.2,0.1-0.2c0.1-0.1,0.1-0.1,0.2-0.1h5.3c0.1,0,0.2,0,0.2,0.1c0.1,0.1,0.1,0.1,0.1,0.2v0.8c0,0.1,0,0.2-0.1,0.2
			c-0.1,0.1-0.1,0.1-0.2,0.1h-3.9v2.1h3.7c0.1,0,0.2,0,0.2,0.1c0.1,0.1,0.1,0.1,0.1,0.2v0.8c0,0.1,0,0.2-0.1,0.2
			c-0.1,0.1-0.1,0.1-0.2,0.1h-3.7v2.2h4c0.1,0,0.2,0,0.2,0.1c0.1,0.1,0.1,0.1,0.1,0.2v0.8c0,0.1,0,0.2-0.1,0.2
			c-0.1,0.1-0.1,0.1-0.2,0.1L163.3,45z"/>
		<g>
			<path class="st0" d="M71,15.8l6.4-9c0.3-0.4,0.5-0.6,0.7-0.6c0.3,0,0.5,0.2,0.7,0.5l6,8.5c0.6-1.9,1.2-3.7,1.7-5.5
				c0.6-1.7,1.2-3.4,1.7-4.9c0.4,0,0.9,0,1.6,0.1c0.6,0.1,1.3,0.2,2,0.3c0.7,0.1,1.4,0.3,2.1,0.5c0.7,0.2,1.4,0.4,2,0.7
				c-1.1,3.3-2.2,6.8-3.3,10.4c-1.1,3.6-2.2,7.4-3.3,11.4h-4.8c-0.9-1.9-1.8-3.8-2.8-5.6c-1-1.8-2-3.5-3.1-5.1
				c-2.4,3.6-4.4,7.1-6.1,10.7h-5.8c-1.1-3.6-2.2-7.2-3.3-10.6s-2.3-6.8-3.5-10.1c2.6-1,5.3-1.6,8.1-1.8c0.4,1.6,0.9,3.3,1.5,5
				C69.8,12.3,70.4,14,71,15.8z"/>
			<path class="st0" d="M104.1,5h5.2l11.4,22.9l-8.4,0.4l-1.6-4.4c-1.7-0.1-3-0.1-3.9-0.1c-0.2,0-0.5,0-0.8,0c-0.3,0-0.7,0-1,0
				c-0.4,0-0.7,0-1,0c-0.3,0-0.6,0-0.9,0.1l-1.5,4.4L93.8,28C97.4,20.7,100.9,13,104.1,5z M107.4,13.3l-2.5,4.9l4.9,0.5L107.4,13.3z
				"/>
			<path class="st0" d="M128.7,5l5.8,3.2c-2.7,1.3-4.1,2.8-4.1,4.6c0,0.4,0,0.7,0.1,0.9c0.1,0.3,0.2,0.5,0.4,0.8
				c0.2,0.3,0.4,0.6,0.7,0.9c0.3,0.3,0.7,0.8,1.1,1.3c1.2,1.4,1.8,2.9,1.8,4.5c0,3.2-2,5.7-6,7.4l-6.4-3.6l0-0.4
				c1.1-0.2,2.1-0.7,3-1.4c0.8-0.7,1.3-1.6,1.3-2.7c0-0.4-0.1-0.9-0.4-1.4s-0.6-1.1-1-1.7c-0.4-0.6-0.8-1.1-1.1-1.6
				c-0.4-0.5-0.6-0.9-0.8-1.2c-0.5-0.9-0.8-1.8-0.8-2.7c0-1.7,0.7-3.2,2.1-4.6C125.3,6.4,126.8,5.6,128.7,5z"/>
			<path class="st0" d="M135.8,5.1h7.9c0,0.5,0,1.1,0,1.7c0,0.7,0.1,1.3,0.1,2.1c0,0.7,0.1,1.4,0.1,2.1c0,0.7,0.1,1.4,0.1,2
				c1.3,0.1,2.6,0.1,3.7,0.1c0.1,0,0.5,0,1,0c0.6,0,1.1,0,1.6,0c0.5,0,0.7,0,0.8,0v-2.6c0-0.3,0-0.8,0-1.3c0-0.5,0-1,0-1.6
				c0-0.5,0-1,0-1.4c0-0.4,0-0.7-0.1-0.8c1.3,0.1,2.5,0.2,3.7,0.2c1.2,0,2.4,0.1,3.5,0.1c0,1.2-0.1,2.4-0.1,3.5c0,1.1,0,2.1,0,2.9
				c0,3.1,0,6.1,0.1,8.8c0.1,2.7,0.2,5.2,0.3,7.4h-7.8c0-0.9,0.1-2.1,0.2-3.5c0.1-1.4,0.1-3.1,0.1-4.9h-7l-0.4,8.4h-7.4
				c0-0.9,0-1.8,0-2.5c0-0.7,0-1.5,0-2.4c0-0.9,0-1.8,0-2.6c0-1.7,0-3.9-0.1-6.4C136.1,11.6,136,8.6,135.8,5.1z"/>
			<path class="st0" d="M159.9,5.1h8.3c-0.3,2.7-0.5,5.2-0.7,7.5c-0.2,2.4-0.2,4.6-0.2,6.7c0,1.4,0,2.9,0.1,4.4
				c0.1,1.5,0.2,3,0.3,4.5h-7.5c0.1-2.2,0.1-4.1,0.2-5.7c0-1.6,0-2.9,0-3.9C160.4,15.8,160.3,11.3,159.9,5.1z"/>
			<path class="st0" d="M176.5,28.2h-6.8c0.1-2.2,0.2-4.1,0.2-5.8c0.1-1.6,0.1-3,0.1-4c0-3.3-0.2-7.7-0.5-13.2
				c0.6-0.1,1.2-0.1,1.6-0.2c0.5,0,0.9-0.1,1.2-0.1c0.4,0,0.7,0,1.1,0c0.4,0,0.7,0,1,0.1c1.9,1.5,3.8,3.1,5.8,4.8
				c1.9,1.8,3.8,3.6,5.8,5.7l-0.9-10.5l8.2,0.3c0,1.6-0.1,2.9-0.1,3.9c0,1.1,0,2.1-0.1,3.1s0,1.8,0,2.4c0,2.9,0.2,7.3,0.5,13.3
				c-0.6,0.1-1.2,0.1-1.8,0.1c-0.6,0-1.2,0-1.9,0h-0.8c-2-2-4-4-6-6.1c-2-2.1-4-4.2-5.9-6.5L176.5,28.2z"/>
			<path class="st0" d="M210.3,4.5l4.1,4.8c-1.2,0.4-2.3,0.9-3.5,1.5c-1.2,0.5-2.3,1.1-3.5,1.7c-3.6,2-5.4,3.5-5.4,4.7
				c0,0.5,0.4,1.2,1.3,2c0.8,0.8,1.7,1.3,2.6,1.8c0.9,0.4,1.9,0.6,3,0.6h0.2c0-2.6-0.1-5.2-0.2-7.7c1.1,0.3,2.2,0.7,3.4,1.1
				c1.1,0.4,2.3,0.9,3.4,1.3c-0.1,1.2-0.2,2.2-0.2,3c0,0.8-0.1,1.4-0.1,1.9c0,1.5,0.1,3.9,0.4,7.1h-10.7c-1.8,0-3.8-1-6-2.9
				c-0.5-0.5-1-1-1.5-1.5c-0.5-0.6-1-1.2-1.4-1.8c-1.1-1.6-1.7-2.9-1.7-4c0-1.4,0.7-3,2-4.9c1-1.4,2.2-2.7,3.6-4
				C203.1,6.7,206.5,5.1,210.3,4.5z"/>
		</g>
		<g>
			<circle class="st0" cx="8" cy="42" r="8"/>
			<circle class="st0" cx="31.2" cy="37.8" r="9.6"/>
			<circle class="st0" cx="16" cy="25" r="5.6"/>
			<circle class="st0" cx="27.2" cy="13.9" r="4"/>
			<circle class="st0" cx="5.7" cy="12.4" r="4"/>
			<circle class="st0" cx="46" cy="17.9" r="4"/>
			<circle class="st0" cx="12" cy="1.7" r="1.7"/>
			<circle class="st0" cx="42.5" cy="28.2" r="1.7"/>
			<circle class="st0" cx="43.2" cy="12.4" r="1.7"/>
		</g>
	</g>
</g>
</svg>
