<svg width="99" height="23" xmlns="http://www.w3.org/2000/svg"><path d="M90.066 16.072a192.814 192.814 0 0 0-19.076-4.65C47.046 7.129 21.49 8.655 0 21.04c1.553-.915 2.863-2.167 4.35-3.01 6.016-3.437 12.454-6.127 19.17-8.065 21.121-6.029 43.434-4.15 64.64 1.376l-1.071-.899c-2.987-2.506-5.976-5.014-9.027-7.442.383.321 3.892-3.393 4.35-3.01 3.435 2.75 6.87 5.505 10.176 8.407 1.685 1.414 3.435 2.75 4.93 4.396.778.786.684 1.36.234 1.896.066-.078.144-.013.206-.088-.128.153-.27.165-.399.318-.128.153-.271.165-.4.318-1.066.803-2.245 1.899-3.48 2.434-.065.077-.205.087-.27.165-1.718.65-4.062.64-5.87 1.082-3.894.909-7.69 2.164-11.37 3.906 1.565-.777 2.71-2.294 4.35-3.01 2.797-1.309 5.681-2.412 8.668-3.17.186-.368.532-.47.878-.573h.001zm2.718-.59l.143-.012-.077-.065-.066.077z" fill="#E4E4E4" fill-rule="evenodd"/></svg>