<svg width="217" height="147" xmlns="http://www.w3.org/2000/svg" xmlns:xlink="http://www.w3.org/1999/xlink"><defs><path d="M90.228 13.93v-.003c3.607 5.652 4.954 13.314 3.973 22.756l.017 7.447c0 37.45-11.253 67.588-34.408 92.105-5.402 5.42-12.966 7.913-16.988 8.91-1.513.615-3.424.898-5.502.898-5.95 0-13.381-2.344-17.803-6.117-3.657-3.125-5.186-7.065-4.272-11.087 1.496-6.65 8.229-11.652 14.18-16.074 3.04-2.26 5.9-4.388 7.778-6.466 6.1-6.798 9.392-14.544 10.555-24.917-1.894-.631-3.075-.864-3.59-.73-.133.115-4.854 1.362-6.965 1.362l-2.194.233C22.792 83.543 8.912 85.006 2.746 70.063-.164 62.998.186 56.033.535 49.302c.116-1.978.216-3.956.233-5.968C.8 39.661.6 35.954.385 32.364c-.365-6.4-.748-13.032.266-19.814-.033-2.875 1.08-5.518 3.242-7.58C10.076-.896 23.689-.165 32.715.317c2.028.1 3.79.2 5.153.2 10.887 0 19.73.548 31.516 1.928 9.707 1.13 16.721 5.003 20.844 11.486zm122.488 0v-.003c3.608 5.652 4.954 13.314 3.973 22.756l.017 7.447c0 37.45-11.253 67.588-34.408 92.105-5.402 5.42-12.965 7.913-16.988 8.91-1.512.615-3.424.898-5.502.898-5.95 0-13.38-2.344-17.802-6.117-3.657-3.125-5.186-7.065-4.272-11.087 1.496-6.65 8.228-11.652 14.178-16.074 3.042-2.26 5.901-4.388 7.78-6.466 6.1-6.798 9.391-14.544 10.555-24.917-1.895-.631-3.075-.864-3.59-.73-.133.115-4.854 1.362-6.965 1.362l-2.194.233c-12.218 1.296-26.097 2.759-32.264-12.184-2.909-7.065-2.56-14.03-2.21-20.761.116-1.978.215-3.956.232-5.968.033-3.673-.166-7.38-.382-10.97-.366-6.4-.748-13.032.266-19.814-.034-2.875 1.08-5.518 3.241-7.58 6.183-5.867 19.797-5.136 28.823-4.654 2.028.1 3.79.2 5.153.2 10.887 0 19.73.548 31.515 1.928 9.707 1.13 16.722 5.003 20.844 11.486z" id="a"/></defs><g fill="none" fill-rule="evenodd"><use fill="#FFF" xlink:href="#a"/><use fill="#F4FCFD" xlink:href="#a"/></g></svg>